<?xml version="1.0" encoding="UTF-8"?>
<svg id="Layer_2" data-name="Layer 2" xmlns="http://www.w3.org/2000/svg" xmlns:xlink="http://www.w3.org/1999/xlink" viewBox="0 0 1451.76 1681.96">
  <defs>
    <style>
      .cls-1 {
        fill: #2a263d;
      }

      .cls-2, .cls-3, .cls-4, .cls-5, .cls-6, .cls-7, .cls-8 {
        stroke-miterlimit: 10;
      }

      .cls-2, .cls-3, .cls-9, .cls-10 {
        fill: #f0e1c3;
      }

      .cls-2, .cls-4, .cls-6 {
        stroke: #f66;
      }

      .cls-3, .cls-4, .cls-9, .cls-7, .cls-8 {
        stroke-width: 2px;
      }

      .cls-3, .cls-5, .cls-9, .cls-7, .cls-8 {
        stroke: #2a263d;
      }

      .cls-4, .cls-5, .cls-6, .cls-11, .cls-8 {
        fill: none;
      }

      .cls-9 {
        stroke-linecap: round;
        stroke-linejoin: round;
      }

      .cls-7 {
        fill: #f66;
      }

      .cls-12 {
        clip-path: url(#clippath);
      }
    </style>
    <clipPath id="clippath">
      <path class="cls-11" d="M284.55,1346.03c47.29,186.68,216.37,324.83,417.76,324.83s370.47-138.14,417.76-324.83H284.55Z"/>
    </clipPath>
  </defs>
  <g id="Layer_2-2" data-name="Layer 2">
    <g>
      <g>
        <g>
          <polygon class="cls-3" points="523.01 569.94 1301.29 671.61 1321.75 674.29 1321.75 674.29 1397.04 684.12 1393.17 714.63 1317.77 703.37 1317.77 703.37 1309.64 702.16 520.4 584.29 523.01 569.94"/>
          <g>
            <path class="cls-8" d="M711.27,498.86c0,64.94-18.51,179.54-18.51,244.48s23.94,64.94,23.94,129.89-23.94,64.94-23.94,129.88,23.94,64.95,23.94,129.9-23.94,64.95-23.94,129.9"/>
            <g>
              <path class="cls-5" d="M732.23,498.86c0,64.94-18.51,179.54-18.51,244.48s23.94,64.94,23.94,129.89-23.94,64.94-23.94,129.88,23.94,64.95,23.94,129.9-23.94,64.95-23.94,129.9"/>
              <path class="cls-8" d="M732.23,498.86c0,64.94-18.51,179.54-18.51,244.48s23.94,64.94,23.94,129.89-23.94,64.94-23.94,129.88,23.94,64.95,23.94,129.9-23.94,64.95-23.94,129.9"/>
            </g>
            <g>
              <path class="cls-5" d="M753.18,498.86c0,64.94-18.51,179.54-18.51,244.48s23.94,64.94,23.94,129.89-23.94,64.94-23.94,129.88,23.94,64.95,23.94,129.9-23.94,64.95-23.94,129.9"/>
              <path class="cls-8" d="M753.18,498.86c0,64.94-18.51,179.54-18.51,244.48s23.94,64.94,23.94,129.89-23.94,64.94-23.94,129.88,23.94,64.95,23.94,129.9-23.94,64.95-23.94,129.9"/>
            </g>
            <g>
              <path class="cls-5" d="M774.14,498.86c0,64.94-18.51,179.54-18.51,244.48s23.94,64.94,23.94,129.89-23.94,64.94-23.94,129.88,23.94,64.95,23.94,129.9-23.94,64.95-23.94,129.9"/>
              <path class="cls-8" d="M774.14,498.86c0,64.94-18.51,179.54-18.51,244.48s23.94,64.94,23.94,129.89-23.94,64.94-23.94,129.88,23.94,64.95,23.94,129.9-23.94,64.95-23.94,129.9"/>
            </g>
            <g>
              <path class="cls-5" d="M795.1,498.86c0,64.94-18.51,179.54-18.51,244.48s23.94,64.94,23.94,129.89-23.94,64.94-23.94,129.88,23.94,64.95,23.94,129.9-23.94,64.95-23.94,129.9"/>
              <path class="cls-8" d="M795.1,498.86c0,64.94-18.51,179.54-18.51,244.48s23.94,64.94,23.94,129.89-23.94,64.94-23.94,129.88,23.94,64.95,23.94,129.9-23.94,64.95-23.94,129.9"/>
            </g>
            <g>
              <path class="cls-5" d="M816.05,498.86c0,64.94-18.51,179.54-18.51,244.48s23.94,64.94,23.94,129.89-23.94,64.94-23.94,129.88,23.94,64.95,23.94,129.9-23.94,64.95-23.94,129.9"/>
              <path class="cls-8" d="M816.05,498.86c0,64.94-18.51,179.54-18.51,244.48s23.94,64.94,23.94,129.89-23.94,64.94-23.94,129.88,23.94,64.95,23.94,129.9-23.94,64.95-23.94,129.9"/>
            </g>
            <g>
              <path class="cls-5" d="M837.01,498.86c0,64.94-18.51,179.54-18.51,244.48s23.94,64.94,23.94,129.89-23.94,64.94-23.94,129.88,23.94,64.95,23.94,129.9-23.94,64.95-23.94,129.9"/>
              <path class="cls-8" d="M837.01,498.86c0,64.94-18.51,179.54-18.51,244.48s23.94,64.94,23.94,129.89-23.94,64.94-23.94,129.88,23.94,64.95,23.94,129.9-23.94,64.95-23.94,129.9"/>
            </g>
            <g>
              <path class="cls-5" d="M857.97,498.86c0,64.94-18.51,179.54-18.51,244.48s23.94,64.94,23.94,129.89-23.94,64.94-23.94,129.88,23.94,64.95,23.94,129.9-23.94,64.95-23.94,129.9"/>
              <path class="cls-8" d="M857.97,498.86c0,64.94-18.51,179.54-18.51,244.48s23.94,64.94,23.94,129.89-23.94,64.94-23.94,129.88,23.94,64.95,23.94,129.9-23.94,64.95-23.94,129.9"/>
            </g>
            <g>
              <path class="cls-5" d="M878.92,498.86c0,64.94-18.51,179.54-18.51,244.48s23.94,64.94,23.94,129.89-23.94,64.94-23.94,129.88,23.94,64.95,23.94,129.9-23.94,64.95-23.94,129.9"/>
              <path class="cls-8" d="M878.92,498.86c0,64.94-18.51,179.54-18.51,244.48s23.94,64.94,23.94,129.89-23.94,64.94-23.94,129.88,23.94,64.95,23.94,129.9-23.94,64.95-23.94,129.9"/>
            </g>
          </g>
          <polygon class="cls-3" points="524.14 527.95 1308.07 558.71 1328.76 559.53 1328.76 559.53 1404.61 562.5 1403.93 593.27 1327.83 588.88 1327.83 588.88 1319.7 588.41 523.03 542.48 524.14 527.95"/>
        </g>
        <g>
          <g>
            <path class="cls-9" d="M832.58,1199.02c-14.97,0-27.16-12.18-27.16-27.16s12.18-27.16,27.16-27.16,27.16,12.18,27.16,27.16-12.18,27.16-27.16,27.16ZM832.58,1157.61c-7.86,0-14.26,6.4-14.26,14.26s6.4,14.26,14.26,14.26,14.26-6.4,14.26-14.26-6.4-14.26-14.26-14.26Z"/>
            <path class="cls-9" d="M284.55,1097.27c-14.97,0-27.16-12.18-27.16-27.16s12.18-27.16,27.16-27.16,27.16,12.18,27.16,27.16-12.18,27.16-27.16,27.16ZM284.55,1055.85c-7.86,0-14.26,6.4-14.26,14.26s6.4,14.26,14.26,14.26,14.26-6.4,14.26-14.26-6.4-14.26-14.26-14.26Z"/>
            <path class="cls-9" d="M483.38,1153.91c-14.97,0-27.16-12.18-27.16-27.16s12.18-27.16,27.16-27.16,27.16,12.18,27.16,27.16-12.18,27.16-27.16,27.16ZM483.38,1112.49c-7.86,0-14.26,6.4-14.26,14.26s6.4,14.26,14.26,14.26,14.26-6.4,14.26-14.26-6.4-14.26-14.26-14.26Z"/>
            <path class="cls-9" d="M563.12,929.08c-14.97,0-27.16-12.18-27.16-27.16s12.18-27.16,27.16-27.16,27.16,12.18,27.16,27.16-12.18,27.16-27.16,27.16ZM563.12,887.67c-7.86,0-14.26,6.4-14.26,14.26s6.4,14.26,14.26,14.26,14.26-6.4,14.26-14.26-6.4-14.26-14.26-14.26Z"/>
            <path class="cls-9" d="M612.6,1047.04c-14.97,0-27.16-12.18-27.16-27.16s12.18-27.16,27.16-27.16,27.16,12.18,27.16,27.16-12.18,27.16-27.16,27.16ZM612.6,1005.62c-7.86,0-14.26,6.4-14.26,14.26s6.4,14.26,14.26,14.26,14.26-6.4,14.26-14.26-6.4-14.26-14.26-14.26Z"/>
            <path class="cls-9" d="M634.87,705.05c-14.97,0-27.16-12.18-27.16-27.16s12.18-27.16,27.16-27.16,27.16,12.18,27.16,27.16-12.18,27.16-27.16,27.16ZM634.87,663.64c-7.86,0-14.26,6.4-14.26,14.26s6.4,14.26,14.26,14.26,14.26-6.4,14.26-14.26-6.4-14.26-14.26-14.26Z"/>
          </g>
          <g>
            <circle class="cls-3" cx="877.34" cy="1340.54" r="173.38" transform="translate(-690.94 1013.01) rotate(-45)"/>
            <path class="cls-3" d="M877.34,1492.98c-84.05,0-152.43-68.38-152.43-152.43s68.38-152.43,152.43-152.43,152.43,68.38,152.43,152.43-68.38,152.43-152.43,152.43Z"/>
            <path class="cls-3" d="M877.34,1472.03c-72.5,0-131.49-58.99-131.49-131.49s58.99-131.49,131.49-131.49,131.49,58.99,131.49,131.49-58.99,131.49-131.49,131.49Z"/>
            <path class="cls-3" d="M877.34,1451.09c-60.95,0-110.54-49.59-110.54-110.54s49.59-110.54,110.54-110.54,110.54,49.59,110.54,110.54-49.59,110.54-110.54,110.54Z"/>
            <path class="cls-3" d="M877.34,1430.14c-49.4,0-89.6-40.19-89.6-89.6s40.19-89.6,89.6-89.6,89.6,40.19,89.6,89.6-40.19,89.6-89.6,89.6Z"/>
            <path class="cls-3" d="M877.34,1409.2c-37.86,0-68.65-30.8-68.65-68.65s30.8-68.65,68.65-68.65,68.66,30.8,68.66,68.65-30.8,68.65-68.66,68.65Z"/>
          </g>
          <g>
            <g>
              <path class="cls-9" d="M846.98,1210.35s8.27-116.41,160.18-156.97c122.56-32.73,164.03,61.72,160.99,117.18-.7,12.73-10,23.42-22.38,26.1-39.21,8.49-137.71,29.42-177.86,34.27-55.45,6.7-135.65,26.19-120.93-20.58Z"/>
              <path class="cls-9" d="M986.66,1075.95c11.53-3.97,32.78-7.16,45.01-5.29,8.48,1.3,16.47,5.08,23.86,9.58,5.92,3.6,11.61,7.76,16.04,13.09,8.18,9.83,11.39,22.84,12.15,35.41,1.04,17.06-2.26,34.77-12.37,48.19-8.18,10.86-20.3,18.24-33.14,22.96-12.84,4.72-26.51,7-40.08,9.25-28.7,4.76-57.41,9.52-86.11,14.28-8.44,1.4-17.1,2.8-25.6,1.19-8.5-1.61-16.97-6.87-19.99-15-1.47-3.95-1.56-8.27-.96-12.38,1.35-9.34,4.61-17.96,10.45-30.47,11.63-24.95,29.21-41.83,49.76-58.88,19.12-15.86,37.41-23.82,60.99-31.95Z"/>
              <path class="cls-9" d="M1133.61,1133.49c4.46,4.11,8.82,8.61,11.08,14.27,2.27,5.66,2.02,12.76-2.08,17.35-2.82,3.16-6.92,5.21-11.09,5.64-9.92,1.03-17.95,1.12-17.95,1.12-4.38-.45-8.85-1.51-12.35-4.17-6.3-4.81-8.04-14.06-5.86-21.8,1.78-6.34,7.65-17.12,13.48-20.77,8.4-5.26,18.98,3.03,24.77,8.37Z"/>
            </g>
            <g>
              <path class="cls-9" d="M770.05,1362.43s.03-122.93,156.64-176.86c126.35-43.51,176.95,52.66,177.88,111.16.21,13.43-8.77,25.35-21.58,29.09-40.57,11.84-142.52,41.16-184.34,49.24-57.77,11.17-140.59,37.61-128.61-12.63Z"/>
              <path class="cls-9" d="M906.83,1210.81c11.82-5.03,33.91-9.97,46.91-8.9,9.01.74,17.68,4.11,25.79,8.3,6.48,3.35,12.77,7.29,17.83,12.56,9.32,9.72,13.66,23.15,15.4,36.3,2.36,17.84.21,36.7-9.41,51.56-7.79,12.02-19.97,20.67-33.12,26.59-13.14,5.92-27.33,9.33-41.43,12.7-29.81,7.14-59.61,14.28-89.42,21.42-8.77,2.1-17.76,4.21-26.81,3.16-9.06-1.06-18.34-5.95-22.13-14.28-1.84-4.05-2.25-8.57-1.93-12.94.72-9.92,3.51-19.22,8.71-32.8,10.37-27.08,27.58-46.13,47.91-65.57,18.91-18.09,37.53-27.81,61.71-38.11Z"/>
              <path class="cls-9" d="M1065.52,1260.34c4.99,3.99,9.9,8.39,12.71,14.17,2.8,5.78,3.07,13.26-.9,18.38-2.73,3.53-6.89,5.99-11.24,6.75-10.35,1.82-18.78,2.51-18.78,2.51-4.64-.15-9.41-.93-13.28-3.47-6.98-4.58-9.49-14.17-7.78-22.47,1.4-6.79,6.77-18.55,12.62-22.83,8.43-6.16,20.17,1.77,26.65,6.95Z"/>
            </g>
          </g>
          <g>
            <path class="cls-3" d="M672.57,1113.25c-.33.8.18,1.73,1.04,1.87,7.01,1.17,13,6.36,14.83,13.69,1.83,7.33-1.02,14.73-6.66,19.05-.69.53-.71,1.58-.04,2.14,5.48,4.52,8.08,12.01,6,19.27s-8.25,12.24-15.29,13.17c-.86.11-1.4,1.02-1.1,1.83,2.49,6.65.99,14.44-4.44,19.69-5.43,5.25-13.27,6.48-19.83,3.76-.8-.33-1.73.18-1.87,1.04-1.17,7.01-6.36,13-13.69,14.83-7.33,1.83-14.73-1.02-19.05-6.66-.53-.69-1.58-.71-2.14-.04-4.52,5.48-12.01,8.08-19.27,6-7.26-2.08-12.24-8.25-13.17-15.29-.11-.86-1.02-1.4-1.83-1.1-6.65,2.49-14.44.99-19.69-4.44-5.25-5.43-6.48-13.27-3.76-19.83.33-.8-.18-1.73-1.04-1.87-7.01-1.17-13-6.36-14.83-13.69-1.83-7.33,1.02-14.73,6.66-19.05.69-.53.71-1.58.04-2.14-5.48-4.52-8.08-12.01-6-19.27,2.08-7.26,8.25-12.24,15.29-13.17.86-.11,1.4-1.02,1.1-1.83-2.49-6.65-.99-14.44,4.44-19.69,5.43-5.25,13.27-6.48,19.83-3.76.8.33,1.73-.18,1.87-1.04,1.17-7.01,6.36-13,13.69-14.83,7.33-1.83,14.73,1.02,19.05,6.66.53.69,1.58.71,2.14.04,4.52-5.48,12.01-8.08,19.27-6,7.26,2.08,12.24,8.25,13.17,15.29.11.86,1.02,1.4,1.83,1.1,6.65-2.49,14.44-.99,19.69,4.44,5.25,5.43,6.48,13.27,3.76,19.83Z"/>
            <path class="cls-4" d="M571.34,1158.04c.42-24.19,20.7-45.88,44.89-45.46,19.35.34,35.07,17.94,34.74,37.29-.27,15.48-13.67,28.59-29.15,28.32-12.38-.21-22.25-10.43-22.04-22.81.17-9.91,8.34-17.8,18.25-17.63,7.93.14,14.24,6.67,14.1,14.6-.11,6.34-5.34,11.39-11.68,11.28"/>
          </g>
          <g>
            <circle class="cls-3" cx="687.11" cy="1326.08" r="173.38" transform="translate(-736.43 874.26) rotate(-45)"/>
            <path class="cls-3" d="M687.11,1478.51c-84.05,0-152.43-68.38-152.43-152.43s68.38-152.43,152.43-152.43,152.43,68.38,152.43,152.43-68.38,152.43-152.43,152.43Z"/>
            <path class="cls-3" d="M687.11,1457.57c-72.5,0-131.49-58.99-131.49-131.49s58.99-131.49,131.49-131.49,131.49,58.99,131.49,131.49-58.99,131.49-131.49,131.49Z"/>
            <path class="cls-3" d="M687.11,1436.62c-60.95,0-110.54-49.59-110.54-110.54s49.59-110.54,110.54-110.54,110.54,49.59,110.54,110.54-49.59,110.54-110.54,110.54Z"/>
            <path class="cls-3" d="M687.11,1415.68c-49.4,0-89.6-40.19-89.6-89.6s40.19-89.6,89.6-89.6,89.6,40.19,89.6,89.6-40.19,89.6-89.6,89.6Z"/>
            <path class="cls-3" d="M687.11,1394.73c-37.86,0-68.65-30.8-68.65-68.65s30.8-68.65,68.65-68.65,68.66,30.8,68.66,68.65-30.8,68.65-68.66,68.65Z"/>
          </g>
          <g>
            <circle class="cls-3" cx="473.52" cy="1327.63" r="173.38" transform="translate(-800.09 723.68) rotate(-45)"/>
            <path class="cls-3" d="M473.52,1480.07c-84.05,0-152.43-68.38-152.43-152.43s68.38-152.43,152.43-152.43,152.43,68.38,152.43,152.43-68.38,152.43-152.43,152.43Z"/>
            <path class="cls-3" d="M473.52,1459.12c-72.5,0-131.49-58.99-131.49-131.49s58.99-131.49,131.49-131.49,131.49,58.99,131.49,131.49-58.99,131.49-131.49,131.49Z"/>
            <path class="cls-3" d="M473.52,1438.18c-60.95,0-110.54-49.59-110.54-110.54s49.59-110.54,110.54-110.54,110.54,49.59,110.54,110.54-49.59,110.54-110.54,110.54Z"/>
            <path class="cls-3" d="M473.52,1417.23c-49.4,0-89.6-40.19-89.6-89.6s40.19-89.6,89.6-89.6,89.6,40.19,89.6,89.6-40.19,89.6-89.6,89.6Z"/>
            <path class="cls-3" d="M473.52,1396.29c-37.85,0-68.65-30.8-68.65-68.65s30.8-68.65,68.65-68.65,68.66,30.8,68.66,68.65-30.8,68.65-68.66,68.65Z"/>
            <path class="cls-3" d="M473.52,1375.35c-26.31,0-47.71-21.4-47.71-47.71s21.4-47.71,47.71-47.71,47.71,21.4,47.71,47.71-21.4,47.71-47.71,47.71Z"/>
          </g>
          <g>
            <path class="cls-3" d="M336.05,1250.44c17.79,64.18,73.93,104.65,125.39,90.39,51.46-14.26,78.74-77.86,60.95-142.04-17.79-64.18-81.44-131.74-132.89-117.48-51.46,14.26-71.23,104.95-53.44,169.13Z"/>
            <circle class="cls-7" cx="437.32" cy="1253.83" r="65.32" transform="translate(-758.51 676.47) rotate(-45)"/>
            <path class="cls-8" d="M424.03,1205.89c26.43-7.33,53.9,8.22,61.23,34.65"/>
          </g>
          <g>
            <g>
              <path class="cls-9" d="M386.85,883.6c33.55,7.21,58.77,34.35,80.15,61.2,21.37,26.85,42.61,55.97,73.8,70.28l-23.56,30.5c-31.19-14.32-52.43-43.44-73.8-70.28-21.37-26.85-46.6-53.98-80.15-61.2l23.56-30.5Z"/>
              <path class="cls-9" d="M326.3,920.84c34.31-.26,64.84,20.74,91.54,42.3,26.7,21.55,53.77,45.36,87.32,52.55l-16.36,34.9c-33.55-7.19-60.62-30.99-87.32-52.55-26.7-21.55-57.23-42.56-91.54-42.3l16.36-34.9Z"/>
            </g>
            <path class="cls-9" d="M750.97,1091.9c17.05-29.78,50.57-45.58,82.63-57.79,32.07-12.22,66.26-23.62,89.36-48.99l21.91,31.71c-23.1,25.37-57.3,36.77-89.36,48.99-32.07,12.22-65.58,28.02-82.63,57.79l-21.91-31.71Z"/>
          </g>
        </g>
        <g>
          <path class="cls-10" d="M272.47,1271.28c1.84,25.6,5.95,50.58,12.07,74.75,47.29,186.68,216.37,324.83,417.76,324.83s370.47-138.14,417.76-324.83c6.12-24.17,10.23-49.14,12.07-74.75H272.47Z"/>
          <g class="cls-12">
            <g>
              <g>
                <g>
                  <path class="cls-2" d="M280.84,1380.94c0-23.27,18.93-42.2,42.2-42.2s42.2,18.93,42.2,42.2h0"/>
                  <path class="cls-2" d="M377.2,1380.94c0-29.92-24.25-54.17-54.17-54.17s-54.17,24.25-54.17,54.17"/>
                  <path class="cls-2" d="M292.81,1380.94c0-16.67,13.56-30.23,30.23-30.23s30.23,13.56,30.23,30.23"/>
                  <path class="cls-2" d="M365.23,1380.94c0-23.27-18.93-42.2-42.2-42.2s-42.2,18.93-42.2,42.2"/>
                  <path class="cls-2" d="M304.78,1380.94c0-10.07,8.19-18.26,18.26-18.26s18.26,8.19,18.26,18.26"/>
                  <path class="cls-2" d="M353.26,1380.94c0-16.67-13.56-30.23-30.23-30.23s-30.23,13.56-30.23,30.23"/>
                </g>
                <g>
                  <path class="cls-2" d="M389.17,1380.94c0-23.27,18.93-42.2,42.2-42.2s42.2,18.93,42.2,42.2h0"/>
                  <path class="cls-2" d="M485.53,1380.94c0-29.92-24.25-54.17-54.17-54.17s-54.17,24.25-54.17,54.17"/>
                  <path class="cls-2" d="M401.14,1380.94c0-16.67,13.56-30.23,30.23-30.23s30.23,13.56,30.23,30.23"/>
                  <path class="cls-2" d="M473.57,1380.94c0-23.27-18.93-42.2-42.2-42.2s-42.2,18.93-42.2,42.2"/>
                  <path class="cls-2" d="M413.11,1380.94c0-10.07,8.19-18.26,18.26-18.26s18.26,8.19,18.26,18.26"/>
                  <path class="cls-2" d="M461.6,1380.94c0-16.67-13.56-30.23-30.23-30.23s-30.23,13.56-30.23,30.23"/>
                </g>
                <g>
                  <path class="cls-2" d="M497.5,1380.94c0-23.27,18.93-42.2,42.2-42.2s42.2,18.93,42.2,42.2h0"/>
                  <path class="cls-2" d="M593.87,1380.94c0-29.92-24.25-54.17-54.17-54.17s-54.17,24.25-54.17,54.17"/>
                  <path class="cls-2" d="M509.47,1380.94c0-16.67,13.56-30.23,30.23-30.23s30.23,13.56,30.23,30.23"/>
                  <path class="cls-2" d="M581.9,1380.94c0-23.27-18.93-42.2-42.2-42.2s-42.2,18.93-42.2,42.2"/>
                  <path class="cls-2" d="M521.44,1380.94c0-10.07,8.19-18.26,18.26-18.26s18.26,8.19,18.26,18.26"/>
                  <path class="cls-2" d="M569.93,1380.94c0-16.67-13.56-30.23-30.23-30.23s-30.23,13.56-30.23,30.23"/>
                </g>
                <g>
                  <path class="cls-2" d="M605.84,1380.94c0-23.27,18.93-42.2,42.2-42.2s42.2,18.93,42.2,42.2h0"/>
                  <path class="cls-2" d="M702.2,1380.94c0-29.92-24.25-54.17-54.17-54.17s-54.17,24.25-54.17,54.17"/>
                  <path class="cls-2" d="M617.81,1380.94c0-16.67,13.56-30.23,30.23-30.23s30.23,13.56,30.23,30.23"/>
                  <path class="cls-2" d="M690.23,1380.94c0-23.27-18.93-42.2-42.2-42.2s-42.2,18.93-42.2,42.2"/>
                  <path class="cls-2" d="M629.77,1380.94c0-10.07,8.19-18.26,18.26-18.26s18.26,8.19,18.26,18.26"/>
                  <path class="cls-2" d="M678.26,1380.94c0-16.67-13.56-30.23-30.23-30.23s-30.23,13.56-30.23,30.23"/>
                  <g>
                    <path class="cls-2" d="M714.17,1380.94c0-23.27,18.93-42.2,42.2-42.2s42.2,18.93,42.2,42.2h0"/>
                    <path class="cls-2" d="M810.53,1380.94c0-29.92-24.25-54.17-54.17-54.17s-54.17,24.25-54.17,54.17"/>
                    <path class="cls-2" d="M726.14,1380.94c0-16.67,13.56-30.23,30.23-30.23s30.23,13.56,30.23,30.23"/>
                    <path class="cls-2" d="M798.57,1380.94c0-23.27-18.93-42.2-42.2-42.2s-42.2,18.93-42.2,42.2"/>
                    <path class="cls-2" d="M738.11,1380.94c0-10.07,8.19-18.26,18.26-18.26s18.26,8.19,18.26,18.26"/>
                    <path class="cls-2" d="M786.6,1380.94c0-16.67-13.56-30.23-30.23-30.23s-30.23,13.56-30.23,30.23"/>
                  </g>
                  <g>
                    <path class="cls-2" d="M822.5,1380.94c0-23.27,18.93-42.2,42.2-42.2s42.2,18.93,42.2,42.2h0"/>
                    <path class="cls-2" d="M918.87,1380.94c0-29.92-24.25-54.17-54.17-54.17s-54.17,24.25-54.17,54.17"/>
                    <path class="cls-2" d="M834.47,1380.94c0-16.67,13.56-30.23,30.23-30.23s30.23,13.56,30.23,30.23"/>
                    <path class="cls-2" d="M906.9,1380.94c0-23.27-18.93-42.2-42.2-42.2s-42.2,18.93-42.2,42.2"/>
                    <path class="cls-2" d="M846.44,1380.94c0-10.07,8.19-18.26,18.26-18.26s18.26,8.19,18.26,18.26"/>
                    <path class="cls-2" d="M894.93,1380.94c0-16.67-13.56-30.23-30.23-30.23s-30.23,13.56-30.23,30.23"/>
                  </g>
                  <g>
                    <path class="cls-2" d="M931.04,1380.94c0-23.27,18.93-42.2,42.2-42.2s42.2,18.93,42.2,42.2h0"/>
                    <path class="cls-2" d="M1027.4,1380.94c0-29.92-24.25-54.17-54.17-54.17s-54.17,24.25-54.17,54.17"/>
                    <path class="cls-2" d="M943.01,1380.94c0-16.67,13.56-30.23,30.23-30.23s30.23,13.56,30.23,30.23"/>
                    <path class="cls-2" d="M1015.44,1380.94c0-23.27-18.93-42.2-42.2-42.2s-42.2,18.93-42.2,42.2"/>
                    <path class="cls-2" d="M954.98,1380.94c0-10.07,8.19-18.26,18.26-18.26s18.26,8.19,18.26,18.26"/>
                    <path class="cls-2" d="M1003.47,1380.94c0-16.67-13.56-30.23-30.23-30.23s-30.23,13.56-30.23,30.23"/>
                  </g>
                  <g>
                    <path class="cls-2" d="M1039.37,1380.94c0-23.27,18.93-42.2,42.2-42.2s42.2,18.93,42.2,42.2h0"/>
                    <path class="cls-2" d="M1135.74,1380.94c0-29.92-24.25-54.17-54.17-54.17s-54.17,24.25-54.17,54.17"/>
                    <path class="cls-2" d="M1051.34,1380.94c0-16.67,13.56-30.23,30.23-30.23s30.23,13.56,30.23,30.23"/>
                    <path class="cls-2" d="M1123.77,1380.94c0-23.27-18.93-42.2-42.2-42.2s-42.2,18.93-42.2,42.2"/>
                    <path class="cls-2" d="M1063.31,1380.94c0-10.07,8.19-18.26,18.26-18.26s18.26,8.19,18.26,18.26"/>
                    <path class="cls-2" d="M1111.8,1380.94c0-16.67-13.56-30.23-30.23-30.23s-30.23,13.56-30.23,30.23"/>
                  </g>
                </g>
              </g>
              <g>
                <g>
                  <path class="cls-2" d="M335,1419.84c0-23.27,18.93-42.2,42.2-42.2s42.2,18.93,42.2,42.2h0"/>
                  <path class="cls-2" d="M431.37,1419.84c0-29.92-24.25-54.17-54.17-54.17s-54.17,24.25-54.17,54.17"/>
                  <path class="cls-2" d="M346.97,1419.84c0-16.67,13.56-30.23,30.23-30.23s30.23,13.56,30.23,30.23"/>
                  <path class="cls-2" d="M419.4,1419.84c0-23.27-18.93-42.2-42.2-42.2s-42.2,18.93-42.2,42.2"/>
                  <path class="cls-2" d="M358.94,1419.84c0-10.07,8.19-18.26,18.26-18.26s18.26,8.19,18.26,18.26"/>
                  <path class="cls-2" d="M407.43,1419.84c0-16.67-13.56-30.23-30.23-30.23s-30.23,13.56-30.23,30.23"/>
                </g>
                <g>
                  <path class="cls-2" d="M226.67,1419.84c0-23.27,18.93-42.2,42.2-42.2s42.2,18.93,42.2,42.2h0"/>
                  <path class="cls-2" d="M323.04,1419.84c0-29.92-24.25-54.17-54.17-54.17s-54.17,24.25-54.17,54.17"/>
                  <path class="cls-2" d="M238.64,1419.84c0-16.67,13.56-30.23,30.23-30.23s30.23,13.56,30.23,30.23"/>
                  <path class="cls-2" d="M311.07,1419.84c0-23.27-18.93-42.2-42.2-42.2s-42.2,18.93-42.2,42.2"/>
                  <path class="cls-2" d="M250.61,1419.84c0-10.07,8.19-18.26,18.26-18.26s18.26,8.19,18.26,18.26"/>
                  <path class="cls-2" d="M299.1,1419.84c0-16.67-13.56-30.23-30.23-30.23s-30.23,13.56-30.23,30.23"/>
                </g>
                <g>
                  <path class="cls-2" d="M443.34,1419.84c0-23.27,18.93-42.2,42.2-42.2s42.2,18.93,42.2,42.2h0"/>
                  <path class="cls-2" d="M539.7,1419.84c0-29.92-24.25-54.17-54.17-54.17s-54.17,24.25-54.17,54.17"/>
                  <path class="cls-2" d="M455.31,1419.84c0-16.67,13.56-30.23,30.23-30.23s30.23,13.56,30.23,30.23"/>
                  <path class="cls-2" d="M527.73,1419.84c0-23.27-18.93-42.2-42.2-42.2s-42.2,18.93-42.2,42.2"/>
                  <path class="cls-2" d="M467.28,1419.84c0-10.07,8.19-18.26,18.26-18.26s18.26,8.19,18.26,18.26"/>
                  <path class="cls-2" d="M515.76,1419.84c0-16.67-13.56-30.23-30.23-30.23s-30.23,13.56-30.23,30.23"/>
                </g>
                <g>
                  <path class="cls-2" d="M551.67,1419.84c0-23.27,18.93-42.2,42.2-42.2s42.2,18.93,42.2,42.2h0"/>
                  <path class="cls-2" d="M648.03,1419.84c0-29.92-24.25-54.17-54.17-54.17s-54.17,24.25-54.17,54.17"/>
                  <path class="cls-2" d="M563.64,1419.84c0-16.67,13.56-30.23,30.23-30.23s30.23,13.56,30.23,30.23"/>
                  <path class="cls-2" d="M636.07,1419.84c0-23.27-18.93-42.2-42.2-42.2s-42.2,18.93-42.2,42.2"/>
                  <path class="cls-2" d="M575.61,1419.84c0-10.07,8.19-18.26,18.26-18.26s18.26,8.19,18.26,18.26"/>
                  <path class="cls-2" d="M624.1,1419.84c0-16.67-13.56-30.23-30.23-30.23s-30.23,13.56-30.23,30.23"/>
                </g>
                <g>
                  <path class="cls-2" d="M660,1419.84c0-23.27,18.93-42.2,42.2-42.2s42.2,18.93,42.2,42.2h0"/>
                  <path class="cls-2" d="M756.37,1419.84c0-29.92-24.25-54.17-54.17-54.17s-54.17,24.25-54.17,54.17"/>
                  <path class="cls-2" d="M671.97,1419.84c0-16.67,13.56-30.23,30.23-30.23s30.23,13.56,30.23,30.23"/>
                  <path class="cls-2" d="M744.4,1419.84c0-23.27-18.93-42.2-42.2-42.2s-42.2,18.93-42.2,42.2"/>
                  <path class="cls-2" d="M683.94,1419.84c0-10.07,8.19-18.26,18.26-18.26s18.26,8.19,18.26,18.26"/>
                  <path class="cls-2" d="M732.43,1419.84c0-16.67-13.56-30.23-30.23-30.23s-30.23,13.56-30.23,30.23"/>
                </g>
                <g>
                  <path class="cls-2" d="M768.34,1419.84c0-23.27,18.93-42.2,42.2-42.2s42.2,18.93,42.2,42.2h0"/>
                  <path class="cls-2" d="M864.7,1419.84c0-29.92-24.25-54.17-54.17-54.17s-54.17,24.25-54.17,54.17"/>
                  <path class="cls-2" d="M780.31,1419.84c0-16.67,13.56-30.23,30.23-30.23s30.23,13.56,30.23,30.23"/>
                  <path class="cls-2" d="M852.73,1419.84c0-23.27-18.93-42.2-42.2-42.2s-42.2,18.93-42.2,42.2"/>
                  <path class="cls-2" d="M792.27,1419.84c0-10.07,8.19-18.26,18.26-18.26s18.26,8.19,18.26,18.26"/>
                  <path class="cls-2" d="M840.76,1419.84c0-16.67-13.56-30.23-30.23-30.23s-30.23,13.56-30.23,30.23"/>
                </g>
                <g>
                  <path class="cls-2" d="M876.67,1419.84c0-23.27,18.93-42.2,42.2-42.2s42.2,18.93,42.2,42.2h0"/>
                  <path class="cls-2" d="M973.03,1419.84c0-29.92-24.25-54.17-54.17-54.17s-54.17,24.25-54.17,54.17"/>
                  <path class="cls-2" d="M888.64,1419.84c0-16.67,13.56-30.23,30.23-30.23s30.23,13.56,30.23,30.23"/>
                  <path class="cls-2" d="M961.06,1419.84c0-23.27-18.93-42.2-42.2-42.2s-42.2,18.93-42.2,42.2"/>
                  <path class="cls-2" d="M900.61,1419.84c0-10.07,8.19-18.26,18.26-18.26s18.26,8.19,18.26,18.26"/>
                  <path class="cls-2" d="M949.1,1419.84c0-16.67-13.56-30.23-30.23-30.23s-30.23,13.56-30.23,30.23"/>
                </g>
                <g>
                  <path class="cls-2" d="M985,1419.84c0-23.27,18.93-42.2,42.2-42.2s42.2,18.93,42.2,42.2h0"/>
                  <path class="cls-2" d="M1081.37,1419.84c0-29.92-24.25-54.17-54.17-54.17s-54.17,24.25-54.17,54.17"/>
                  <path class="cls-2" d="M996.97,1419.84c0-16.67,13.56-30.23,30.23-30.23s30.23,13.56,30.23,30.23"/>
                  <path class="cls-2" d="M1069.4,1419.84c0-23.27-18.93-42.2-42.2-42.2s-42.2,18.93-42.2,42.2"/>
                  <path class="cls-2" d="M1008.94,1419.84c0-10.07,8.19-18.26,18.26-18.26s18.26,8.19,18.26,18.26"/>
                  <path class="cls-2" d="M1057.43,1419.84c0-16.67-13.56-30.23-30.23-30.23s-30.23,13.56-30.23,30.23"/>
                </g>
                <g>
                  <path class="cls-2" d="M1093.34,1419.84c0-23.27,18.93-42.2,42.2-42.2s42.2,18.93,42.2,42.2h0"/>
                  <path class="cls-2" d="M1189.7,1419.84c0-29.92-24.25-54.17-54.17-54.17s-54.17,24.25-54.17,54.17"/>
                  <path class="cls-2" d="M1105.3,1419.84c0-16.67,13.56-30.23,30.23-30.23s30.23,13.56,30.23,30.23"/>
                  <path class="cls-2" d="M1177.73,1419.84c0-23.27-18.93-42.2-42.2-42.2s-42.2,18.93-42.2,42.2"/>
                  <path class="cls-2" d="M1117.27,1419.84c0-10.07,8.19-18.26,18.26-18.26s18.26,8.19,18.26,18.26"/>
                  <path class="cls-2" d="M1165.76,1419.84c0-16.67-13.56-30.23-30.23-30.23s-30.23,13.56-30.23,30.23"/>
                </g>
              </g>
              <g>
                <g>
                  <path class="cls-2" d="M280.84,1460.66c0-23.27,18.93-42.2,42.2-42.2s42.2,18.93,42.2,42.2h0"/>
                  <path class="cls-2" d="M377.2,1460.66c0-29.92-24.25-54.17-54.17-54.17s-54.17,24.25-54.17,54.17"/>
                  <path class="cls-2" d="M292.81,1460.66c0-16.67,13.56-30.23,30.23-30.23s30.23,13.56,30.23,30.23"/>
                  <path class="cls-2" d="M365.23,1460.66c0-23.27-18.93-42.2-42.2-42.2s-42.2,18.93-42.2,42.2"/>
                  <path class="cls-2" d="M304.78,1460.66c0-10.07,8.19-18.26,18.26-18.26s18.26,8.19,18.26,18.26"/>
                  <path class="cls-2" d="M353.26,1460.66c0-16.67-13.56-30.23-30.23-30.23s-30.23,13.56-30.23,30.23"/>
                </g>
                <g>
                  <path class="cls-2" d="M389.17,1460.66c0-23.27,18.93-42.2,42.2-42.2s42.2,18.93,42.2,42.2h0"/>
                  <path class="cls-2" d="M485.53,1460.66c0-29.92-24.25-54.17-54.17-54.17s-54.17,24.25-54.17,54.17"/>
                  <path class="cls-2" d="M401.14,1460.66c0-16.67,13.56-30.23,30.23-30.23s30.23,13.56,30.23,30.23"/>
                  <path class="cls-2" d="M473.57,1460.66c0-23.27-18.93-42.2-42.2-42.2s-42.2,18.93-42.2,42.2"/>
                  <path class="cls-2" d="M413.11,1460.66c0-10.07,8.19-18.26,18.26-18.26s18.26,8.19,18.26,18.26"/>
                  <path class="cls-2" d="M461.6,1460.66c0-16.67-13.56-30.23-30.23-30.23s-30.23,13.56-30.23,30.23"/>
                </g>
                <g>
                  <path class="cls-2" d="M497.5,1460.66c0-23.27,18.93-42.2,42.2-42.2s42.2,18.93,42.2,42.2h0"/>
                  <path class="cls-2" d="M593.87,1460.66c0-29.92-24.25-54.17-54.17-54.17s-54.17,24.25-54.17,54.17"/>
                  <path class="cls-2" d="M509.47,1460.66c0-16.67,13.56-30.23,30.23-30.23s30.23,13.56,30.23,30.23"/>
                  <path class="cls-2" d="M581.9,1460.66c0-23.27-18.93-42.2-42.2-42.2s-42.2,18.93-42.2,42.2"/>
                  <path class="cls-2" d="M521.44,1460.66c0-10.07,8.19-18.26,18.26-18.26s18.26,8.19,18.26,18.26"/>
                  <path class="cls-2" d="M569.93,1460.66c0-16.67-13.56-30.23-30.23-30.23s-30.23,13.56-30.23,30.23"/>
                </g>
                <g>
                  <path class="cls-2" d="M605.84,1460.66c0-23.27,18.93-42.2,42.2-42.2s42.2,18.93,42.2,42.2h0"/>
                  <path class="cls-2" d="M702.2,1460.66c0-29.92-24.25-54.17-54.17-54.17s-54.17,24.25-54.17,54.17"/>
                  <path class="cls-2" d="M617.81,1460.66c0-16.67,13.56-30.23,30.23-30.23s30.23,13.56,30.23,30.23"/>
                  <path class="cls-2" d="M690.23,1460.66c0-23.27-18.93-42.2-42.2-42.2s-42.2,18.93-42.2,42.2"/>
                  <path class="cls-2" d="M629.77,1460.66c0-10.07,8.19-18.26,18.26-18.26s18.26,8.19,18.26,18.26"/>
                  <path class="cls-2" d="M678.26,1460.66c0-16.67-13.56-30.23-30.23-30.23s-30.23,13.56-30.23,30.23"/>
                  <g>
                    <path class="cls-2" d="M714.17,1460.66c0-23.27,18.93-42.2,42.2-42.2s42.2,18.93,42.2,42.2h0"/>
                    <path class="cls-2" d="M810.53,1460.66c0-29.92-24.25-54.17-54.17-54.17s-54.17,24.25-54.17,54.17"/>
                    <path class="cls-2" d="M726.14,1460.66c0-16.67,13.56-30.23,30.23-30.23s30.23,13.56,30.23,30.23"/>
                    <path class="cls-2" d="M798.57,1460.66c0-23.27-18.93-42.2-42.2-42.2s-42.2,18.93-42.2,42.2"/>
                    <path class="cls-2" d="M738.11,1460.66c0-10.07,8.19-18.26,18.26-18.26s18.26,8.19,18.26,18.26"/>
                    <path class="cls-2" d="M786.6,1460.66c0-16.67-13.56-30.23-30.23-30.23s-30.23,13.56-30.23,30.23"/>
                  </g>
                  <g>
                    <path class="cls-2" d="M822.5,1460.66c0-23.27,18.93-42.2,42.2-42.2s42.2,18.93,42.2,42.2h0"/>
                    <path class="cls-2" d="M918.87,1460.66c0-29.92-24.25-54.17-54.17-54.17s-54.17,24.25-54.17,54.17"/>
                    <path class="cls-2" d="M834.47,1460.66c0-16.67,13.56-30.23,30.23-30.23s30.23,13.56,30.23,30.23"/>
                    <path class="cls-2" d="M906.9,1460.66c0-23.27-18.93-42.2-42.2-42.2s-42.2,18.93-42.2,42.2"/>
                    <path class="cls-2" d="M846.44,1460.66c0-10.07,8.19-18.26,18.26-18.26s18.26,8.19,18.26,18.26"/>
                    <path class="cls-2" d="M894.93,1460.66c0-16.67-13.56-30.23-30.23-30.23s-30.23,13.56-30.23,30.23"/>
                  </g>
                  <g>
                    <path class="cls-2" d="M930.84,1460.66c0-23.27,18.93-42.2,42.2-42.2s42.2,18.93,42.2,42.2h0"/>
                    <path class="cls-2" d="M1027.2,1460.66c0-29.92-24.25-54.17-54.17-54.17s-54.17,24.25-54.17,54.17"/>
                    <path class="cls-2" d="M942.8,1460.66c0-16.67,13.56-30.23,30.23-30.23s30.23,13.56,30.23,30.23"/>
                    <path class="cls-2" d="M1015.23,1460.66c0-23.27-18.93-42.2-42.2-42.2s-42.2,18.93-42.2,42.2"/>
                    <path class="cls-2" d="M954.77,1460.66c0-10.07,8.19-18.26,18.26-18.26s18.26,8.19,18.26,18.26"/>
                    <path class="cls-2" d="M1003.26,1460.66c0-16.67-13.56-30.23-30.23-30.23s-30.23,13.56-30.23,30.23"/>
                  </g>
                  <g>
                    <path class="cls-2" d="M1039.17,1460.66c0-23.27,18.93-42.2,42.2-42.2s42.2,18.93,42.2,42.2h0"/>
                    <path class="cls-2" d="M1135.53,1460.66c0-29.92-24.25-54.17-54.17-54.17s-54.17,24.25-54.17,54.17"/>
                    <path class="cls-2" d="M1051.14,1460.66c0-16.67,13.56-30.23,30.23-30.23s30.23,13.56,30.23,30.23"/>
                    <path class="cls-2" d="M1123.56,1460.66c0-23.27-18.93-42.2-42.2-42.2s-42.2,18.93-42.2,42.2"/>
                    <path class="cls-2" d="M1063.11,1460.66c0-10.07,8.19-18.26,18.26-18.26s18.26,8.19,18.26,18.26"/>
                    <path class="cls-2" d="M1111.6,1460.66c0-16.67-13.56-30.23-30.23-30.23s-30.23,13.56-30.23,30.23"/>
                  </g>
                </g>
              </g>
              <g>
                <g>
                  <path class="cls-2" d="M335,1500.82c0-23.27,18.93-42.2,42.2-42.2s42.2,18.93,42.2,42.2h0"/>
                  <path class="cls-2" d="M431.37,1500.82c0-29.92-24.25-54.17-54.17-54.17s-54.17,24.25-54.17,54.17"/>
                  <path class="cls-2" d="M346.97,1500.82c0-16.67,13.56-30.23,30.23-30.23s30.23,13.56,30.23,30.23"/>
                  <path class="cls-2" d="M419.4,1500.82c0-23.27-18.93-42.2-42.2-42.2s-42.2,18.93-42.2,42.2"/>
                  <path class="cls-2" d="M358.94,1500.82c0-10.07,8.19-18.26,18.26-18.26s18.26,8.19,18.26,18.26"/>
                  <path class="cls-2" d="M407.43,1500.82c0-16.67-13.56-30.23-30.23-30.23s-30.23,13.56-30.23,30.23"/>
                </g>
                <g>
                  <path class="cls-2" d="M226.67,1500.82c0-23.27,18.93-42.2,42.2-42.2s42.2,18.93,42.2,42.2h0"/>
                  <path class="cls-2" d="M323.04,1500.82c0-29.92-24.25-54.17-54.17-54.17s-54.17,24.25-54.17,54.17"/>
                  <path class="cls-2" d="M238.64,1500.82c0-16.67,13.56-30.23,30.23-30.23s30.23,13.56,30.23,30.23"/>
                  <path class="cls-2" d="M311.07,1500.82c0-23.27-18.93-42.2-42.2-42.2s-42.2,18.93-42.2,42.2"/>
                  <path class="cls-2" d="M250.61,1500.82c0-10.07,8.19-18.26,18.26-18.26s18.26,8.19,18.26,18.26"/>
                  <path class="cls-2" d="M299.1,1500.82c0-16.67-13.56-30.23-30.23-30.23s-30.23,13.56-30.23,30.23"/>
                </g>
                <g>
                  <path class="cls-2" d="M443.34,1500.82c0-23.27,18.93-42.2,42.2-42.2s42.2,18.93,42.2,42.2h0"/>
                  <path class="cls-2" d="M539.7,1500.82c0-29.92-24.25-54.17-54.17-54.17s-54.17,24.25-54.17,54.17"/>
                  <path class="cls-2" d="M455.31,1500.82c0-16.67,13.56-30.23,30.23-30.23s30.23,13.56,30.23,30.23"/>
                  <path class="cls-2" d="M527.73,1500.82c0-23.27-18.93-42.2-42.2-42.2s-42.2,18.93-42.2,42.2"/>
                  <path class="cls-2" d="M467.28,1500.82c0-10.07,8.19-18.26,18.26-18.26s18.26,8.19,18.26,18.26"/>
                  <path class="cls-2" d="M515.76,1500.82c0-16.67-13.56-30.23-30.23-30.23s-30.23,13.56-30.23,30.23"/>
                </g>
                <g>
                  <path class="cls-2" d="M551.67,1500.82c0-23.27,18.93-42.2,42.2-42.2s42.2,18.93,42.2,42.2h0"/>
                  <path class="cls-2" d="M648.03,1500.82c0-29.92-24.25-54.17-54.17-54.17s-54.17,24.25-54.17,54.17"/>
                  <path class="cls-2" d="M563.64,1500.82c0-16.67,13.56-30.23,30.23-30.23s30.23,13.56,30.23,30.23"/>
                  <path class="cls-2" d="M636.07,1500.82c0-23.27-18.93-42.2-42.2-42.2s-42.2,18.93-42.2,42.2"/>
                  <path class="cls-2" d="M575.61,1500.82c0-10.07,8.19-18.26,18.26-18.26s18.26,8.19,18.26,18.26"/>
                  <path class="cls-2" d="M624.1,1500.82c0-16.67-13.56-30.23-30.23-30.23s-30.23,13.56-30.23,30.23"/>
                </g>
                <g>
                  <path class="cls-2" d="M660,1500.82c0-23.27,18.93-42.2,42.2-42.2s42.2,18.93,42.2,42.2h0"/>
                  <path class="cls-2" d="M756.37,1500.82c0-29.92-24.25-54.17-54.17-54.17s-54.17,24.25-54.17,54.17"/>
                  <path class="cls-2" d="M671.97,1500.82c0-16.67,13.56-30.23,30.23-30.23s30.23,13.56,30.23,30.23"/>
                  <path class="cls-2" d="M744.4,1500.82c0-23.27-18.93-42.2-42.2-42.2s-42.2,18.93-42.2,42.2"/>
                  <path class="cls-2" d="M683.94,1500.82c0-10.07,8.19-18.26,18.26-18.26s18.26,8.19,18.26,18.26"/>
                  <path class="cls-2" d="M732.43,1500.82c0-16.67-13.56-30.23-30.23-30.23s-30.23,13.56-30.23,30.23"/>
                </g>
                <g>
                  <path class="cls-2" d="M768.34,1500.82c0-23.27,18.93-42.2,42.2-42.2s42.2,18.93,42.2,42.2h0"/>
                  <path class="cls-2" d="M864.7,1500.82c0-29.92-24.25-54.17-54.17-54.17s-54.17,24.25-54.17,54.17"/>
                  <path class="cls-2" d="M780.31,1500.82c0-16.67,13.56-30.23,30.23-30.23s30.23,13.56,30.23,30.23"/>
                  <path class="cls-2" d="M852.73,1500.82c0-23.27-18.93-42.2-42.2-42.2s-42.2,18.93-42.2,42.2"/>
                  <path class="cls-2" d="M792.27,1500.82c0-10.07,8.19-18.26,18.26-18.26s18.26,8.19,18.26,18.26"/>
                  <path class="cls-2" d="M840.76,1500.82c0-16.67-13.56-30.23-30.23-30.23s-30.23,13.56-30.23,30.23"/>
                </g>
                <g>
                  <path class="cls-2" d="M876.67,1500.82c0-23.27,18.93-42.2,42.2-42.2s42.2,18.93,42.2,42.2h0"/>
                  <path class="cls-2" d="M973.03,1500.82c0-29.92-24.25-54.17-54.17-54.17s-54.17,24.25-54.17,54.17"/>
                  <path class="cls-2" d="M888.64,1500.82c0-16.67,13.56-30.23,30.23-30.23s30.23,13.56,30.23,30.23"/>
                  <path class="cls-2" d="M961.06,1500.82c0-23.27-18.93-42.2-42.2-42.2s-42.2,18.93-42.2,42.2"/>
                  <path class="cls-2" d="M900.61,1500.82c0-10.07,8.19-18.26,18.26-18.26s18.26,8.19,18.26,18.26"/>
                  <path class="cls-2" d="M949.1,1500.82c0-16.67-13.56-30.23-30.23-30.23s-30.23,13.56-30.23,30.23"/>
                </g>
                <g>
                  <path class="cls-2" d="M985.21,1500.82c0-23.27,18.93-42.2,42.2-42.2s42.2,18.93,42.2,42.2h0"/>
                  <path class="cls-2" d="M1081.57,1500.82c0-29.92-24.25-54.17-54.17-54.17s-54.17,24.25-54.17,54.17"/>
                  <path class="cls-2" d="M997.18,1500.82c0-16.67,13.56-30.23,30.23-30.23s30.23,13.56,30.23,30.23"/>
                  <path class="cls-2" d="M1069.6,1500.82c0-23.27-18.93-42.2-42.2-42.2s-42.2,18.93-42.2,42.2"/>
                  <path class="cls-2" d="M1009.14,1500.82c0-10.07,8.19-18.26,18.26-18.26s18.26,8.19,18.26,18.26"/>
                  <path class="cls-2" d="M1057.63,1500.82c0-16.67-13.56-30.23-30.23-30.23s-30.23,13.56-30.23,30.23"/>
                </g>
                <g>
                  <path class="cls-2" d="M1093.54,1500.82c0-23.27,18.93-42.2,42.2-42.2s42.2,18.93,42.2,42.2h0"/>
                  <path class="cls-2" d="M1189.9,1500.82c0-29.92-24.25-54.17-54.17-54.17s-54.17,24.25-54.17,54.17"/>
                  <path class="cls-2" d="M1105.51,1500.82c0-16.67,13.56-30.23,30.23-30.23s30.23,13.56,30.23,30.23"/>
                  <path class="cls-2" d="M1177.93,1500.82c0-23.27-18.93-42.2-42.2-42.2s-42.2,18.93-42.2,42.2"/>
                  <path class="cls-2" d="M1117.48,1500.82c0-10.07,8.19-18.26,18.26-18.26s18.26,8.19,18.26,18.26"/>
                  <path class="cls-2" d="M1165.97,1500.82c0-16.67-13.56-30.23-30.23-30.23s-30.23,13.56-30.23,30.23"/>
                </g>
              </g>
              <g>
                <g>
                  <path class="cls-2" d="M280.84,1539.65c0-23.27,18.93-42.2,42.2-42.2s42.2,18.93,42.2,42.2h0"/>
                  <path class="cls-2" d="M377.2,1539.65c0-29.92-24.25-54.17-54.17-54.17s-54.17,24.25-54.17,54.17"/>
                  <path class="cls-2" d="M292.81,1539.65c0-16.67,13.56-30.23,30.23-30.23s30.23,13.56,30.23,30.23"/>
                  <path class="cls-2" d="M365.23,1539.65c0-23.27-18.93-42.2-42.2-42.2s-42.2,18.93-42.2,42.2"/>
                  <path class="cls-2" d="M304.78,1539.65c0-10.07,8.19-18.26,18.26-18.26s18.26,8.19,18.26,18.26"/>
                  <path class="cls-2" d="M353.26,1539.65c0-16.67-13.56-30.23-30.23-30.23s-30.23,13.56-30.23,30.23"/>
                </g>
                <g>
                  <path class="cls-2" d="M389.17,1539.65c0-23.27,18.93-42.2,42.2-42.2s42.2,18.93,42.2,42.2h0"/>
                  <path class="cls-2" d="M485.53,1539.65c0-29.92-24.25-54.17-54.17-54.17s-54.17,24.25-54.17,54.17"/>
                  <path class="cls-2" d="M401.14,1539.65c0-16.67,13.56-30.23,30.23-30.23s30.23,13.56,30.23,30.23"/>
                  <path class="cls-2" d="M473.57,1539.65c0-23.27-18.93-42.2-42.2-42.2s-42.2,18.93-42.2,42.2"/>
                  <path class="cls-2" d="M413.11,1539.65c0-10.07,8.19-18.26,18.26-18.26s18.26,8.19,18.26,18.26"/>
                  <path class="cls-2" d="M461.6,1539.65c0-16.67-13.56-30.23-30.23-30.23s-30.23,13.56-30.23,30.23"/>
                </g>
                <g>
                  <path class="cls-2" d="M497.5,1539.65c0-23.27,18.93-42.2,42.2-42.2s42.2,18.93,42.2,42.2h0"/>
                  <path class="cls-2" d="M593.87,1539.65c0-29.92-24.25-54.17-54.17-54.17s-54.17,24.25-54.17,54.17"/>
                  <path class="cls-2" d="M509.47,1539.65c0-16.67,13.56-30.23,30.23-30.23s30.23,13.56,30.23,30.23"/>
                  <path class="cls-2" d="M581.9,1539.65c0-23.27-18.93-42.2-42.2-42.2s-42.2,18.93-42.2,42.2"/>
                  <path class="cls-2" d="M521.44,1539.65c0-10.07,8.19-18.26,18.26-18.26s18.26,8.19,18.26,18.26"/>
                  <path class="cls-2" d="M569.93,1539.65c0-16.67-13.56-30.23-30.23-30.23s-30.23,13.56-30.23,30.23"/>
                </g>
                <g>
                  <path class="cls-2" d="M605.84,1539.65c0-23.27,18.93-42.2,42.2-42.2s42.2,18.93,42.2,42.2h0"/>
                  <path class="cls-2" d="M702.2,1539.65c0-29.92-24.25-54.17-54.17-54.17s-54.17,24.25-54.17,54.17"/>
                  <path class="cls-2" d="M617.81,1539.65c0-16.67,13.56-30.23,30.23-30.23s30.23,13.56,30.23,30.23"/>
                  <path class="cls-2" d="M690.23,1539.65c0-23.27-18.93-42.2-42.2-42.2s-42.2,18.93-42.2,42.2"/>
                  <path class="cls-2" d="M629.77,1539.65c0-10.07,8.19-18.26,18.26-18.26s18.26,8.19,18.26,18.26"/>
                  <path class="cls-2" d="M678.26,1539.65c0-16.67-13.56-30.23-30.23-30.23s-30.23,13.56-30.23,30.23"/>
                </g>
                <g>
                  <path class="cls-2" d="M714.17,1539.65c0-23.27,18.93-42.2,42.2-42.2s42.2,18.93,42.2,42.2h0"/>
                  <path class="cls-2" d="M810.53,1539.65c0-29.92-24.25-54.17-54.17-54.17s-54.17,24.25-54.17,54.17"/>
                  <path class="cls-2" d="M726.14,1539.65c0-16.67,13.56-30.23,30.23-30.23s30.23,13.56,30.23,30.23"/>
                  <path class="cls-2" d="M798.57,1539.65c0-23.27-18.93-42.2-42.2-42.2s-42.2,18.93-42.2,42.2"/>
                  <path class="cls-2" d="M738.11,1539.65c0-10.07,8.19-18.26,18.26-18.26s18.26,8.19,18.26,18.26"/>
                  <path class="cls-2" d="M786.6,1539.65c0-16.67-13.56-30.23-30.23-30.23s-30.23,13.56-30.23,30.23"/>
                </g>
                <g>
                  <path class="cls-2" d="M822.5,1539.65c0-23.27,18.93-42.2,42.2-42.2s42.2,18.93,42.2,42.2h0"/>
                  <path class="cls-2" d="M918.87,1539.65c0-29.92-24.25-54.17-54.17-54.17s-54.17,24.25-54.17,54.17"/>
                  <path class="cls-2" d="M834.47,1539.65c0-16.67,13.56-30.23,30.23-30.23s30.23,13.56,30.23,30.23"/>
                  <path class="cls-2" d="M906.9,1539.65c0-23.27-18.93-42.2-42.2-42.2s-42.2,18.93-42.2,42.2"/>
                  <path class="cls-2" d="M846.44,1539.65c0-10.07,8.19-18.26,18.26-18.26s18.26,8.19,18.26,18.26"/>
                  <path class="cls-2" d="M894.93,1539.65c0-16.67-13.56-30.23-30.23-30.23s-30.23,13.56-30.23,30.23"/>
                </g>
                <g>
                  <path class="cls-2" d="M930.84,1539.65c0-23.27,18.93-42.2,42.2-42.2s42.2,18.93,42.2,42.2h0"/>
                  <path class="cls-2" d="M1027.2,1539.65c0-29.92-24.25-54.17-54.17-54.17s-54.17,24.25-54.17,54.17"/>
                  <path class="cls-2" d="M942.8,1539.65c0-16.67,13.56-30.23,30.23-30.23s30.23,13.56,30.23,30.23"/>
                  <path class="cls-2" d="M1015.23,1539.65c0-23.27-18.93-42.2-42.2-42.2s-42.2,18.93-42.2,42.2"/>
                  <path class="cls-2" d="M954.77,1539.65c0-10.07,8.19-18.26,18.26-18.26s18.26,8.19,18.26,18.26"/>
                  <path class="cls-2" d="M1003.26,1539.65c0-16.67-13.56-30.23-30.23-30.23s-30.23,13.56-30.23,30.23"/>
                </g>
                <g>
                  <path class="cls-2" d="M1039.17,1539.65c0-23.27,18.93-42.2,42.2-42.2s42.2,18.93,42.2,42.2h0"/>
                  <path class="cls-2" d="M1135.53,1539.65c0-29.92-24.25-54.17-54.17-54.17s-54.17,24.25-54.17,54.17"/>
                  <path class="cls-2" d="M1051.14,1539.65c0-16.67,13.56-30.23,30.23-30.23s30.23,13.56,30.23,30.23"/>
                  <path class="cls-2" d="M1123.56,1539.65c0-23.27-18.93-42.2-42.2-42.2s-42.2,18.93-42.2,42.2"/>
                  <path class="cls-2" d="M1063.11,1539.65c0-10.07,8.19-18.26,18.26-18.26s18.26,8.19,18.26,18.26"/>
                  <path class="cls-2" d="M1111.6,1539.65c0-16.67-13.56-30.23-30.23-30.23s-30.23,13.56-30.23,30.23"/>
                </g>
              </g>
              <g>
                <g>
                  <path class="cls-2" d="M335,1578.7c0-23.27,18.93-42.2,42.2-42.2s42.2,18.93,42.2,42.2h0"/>
                  <path class="cls-2" d="M431.37,1578.7c0-29.92-24.25-54.17-54.17-54.17s-54.17,24.25-54.17,54.17"/>
                  <path class="cls-2" d="M346.97,1578.7c0-16.67,13.56-30.23,30.23-30.23s30.23,13.56,30.23,30.23"/>
                  <path class="cls-2" d="M419.4,1578.7c0-23.27-18.93-42.2-42.2-42.2s-42.2,18.93-42.2,42.2"/>
                  <path class="cls-2" d="M358.94,1578.7c0-10.07,8.19-18.26,18.26-18.26s18.26,8.19,18.26,18.26"/>
                  <path class="cls-2" d="M407.43,1578.7c0-16.67-13.56-30.23-30.23-30.23s-30.23,13.56-30.23,30.23"/>
                </g>
                <g>
                  <path class="cls-2" d="M226.67,1578.7c0-23.27,18.93-42.2,42.2-42.2s42.2,18.93,42.2,42.2h0"/>
                  <path class="cls-2" d="M323.04,1578.7c0-29.92-24.25-54.17-54.17-54.17s-54.17,24.25-54.17,54.17"/>
                  <path class="cls-2" d="M238.64,1578.7c0-16.67,13.56-30.23,30.23-30.23s30.23,13.56,30.23,30.23"/>
                  <path class="cls-2" d="M311.07,1578.7c0-23.27-18.93-42.2-42.2-42.2s-42.2,18.93-42.2,42.2"/>
                  <path class="cls-2" d="M250.61,1578.7c0-10.07,8.19-18.26,18.26-18.26s18.26,8.19,18.26,18.26"/>
                  <path class="cls-2" d="M299.1,1578.7c0-16.67-13.56-30.23-30.23-30.23s-30.23,13.56-30.23,30.23"/>
                </g>
                <g>
                  <path class="cls-2" d="M443.34,1578.7c0-23.27,18.93-42.2,42.2-42.2s42.2,18.93,42.2,42.2h0"/>
                  <path class="cls-2" d="M539.7,1578.7c0-29.92-24.25-54.17-54.17-54.17s-54.17,24.25-54.17,54.17"/>
                  <path class="cls-2" d="M455.31,1578.7c0-16.67,13.56-30.23,30.23-30.23s30.23,13.56,30.23,30.23"/>
                  <path class="cls-2" d="M527.73,1578.7c0-23.27-18.93-42.2-42.2-42.2s-42.2,18.93-42.2,42.2"/>
                  <path class="cls-2" d="M467.28,1578.7c0-10.07,8.19-18.26,18.26-18.26s18.26,8.19,18.26,18.26"/>
                  <path class="cls-2" d="M515.76,1578.7c0-16.67-13.56-30.23-30.23-30.23s-30.23,13.56-30.23,30.23"/>
                </g>
                <g>
                  <path class="cls-2" d="M551.67,1578.7c0-23.27,18.93-42.2,42.2-42.2s42.2,18.93,42.2,42.2h0"/>
                  <path class="cls-2" d="M648.03,1578.7c0-29.92-24.25-54.17-54.17-54.17s-54.17,24.25-54.17,54.17"/>
                  <path class="cls-2" d="M563.64,1578.7c0-16.67,13.56-30.23,30.23-30.23s30.23,13.56,30.23,30.23"/>
                  <path class="cls-2" d="M636.07,1578.7c0-23.27-18.93-42.2-42.2-42.2s-42.2,18.93-42.2,42.2"/>
                  <path class="cls-2" d="M575.61,1578.7c0-10.07,8.19-18.26,18.26-18.26s18.26,8.19,18.26,18.26"/>
                  <path class="cls-2" d="M624.1,1578.7c0-16.67-13.56-30.23-30.23-30.23s-30.23,13.56-30.23,30.23"/>
                </g>
                <g>
                  <path class="cls-2" d="M660,1578.7c0-23.27,18.93-42.2,42.2-42.2s42.2,18.93,42.2,42.2h0"/>
                  <path class="cls-2" d="M756.37,1578.7c0-29.92-24.25-54.17-54.17-54.17s-54.17,24.25-54.17,54.17"/>
                  <path class="cls-2" d="M671.97,1578.7c0-16.67,13.56-30.23,30.23-30.23s30.23,13.56,30.23,30.23"/>
                  <path class="cls-2" d="M744.4,1578.7c0-23.27-18.93-42.2-42.2-42.2s-42.2,18.93-42.2,42.2"/>
                  <path class="cls-2" d="M683.94,1578.7c0-10.07,8.19-18.26,18.26-18.26s18.26,8.19,18.26,18.26"/>
                  <path class="cls-2" d="M732.43,1578.7c0-16.67-13.56-30.23-30.23-30.23s-30.23,13.56-30.23,30.23"/>
                </g>
                <g>
                  <path class="cls-2" d="M768.34,1578.7c0-23.27,18.93-42.2,42.2-42.2s42.2,18.93,42.2,42.2h0"/>
                  <path class="cls-2" d="M864.7,1578.7c0-29.92-24.25-54.17-54.17-54.17s-54.17,24.25-54.17,54.17"/>
                  <path class="cls-2" d="M780.31,1578.7c0-16.67,13.56-30.23,30.23-30.23s30.23,13.56,30.23,30.23"/>
                  <path class="cls-2" d="M852.73,1578.7c0-23.27-18.93-42.2-42.2-42.2s-42.2,18.93-42.2,42.2"/>
                  <path class="cls-2" d="M792.27,1578.7c0-10.07,8.19-18.26,18.26-18.26s18.26,8.19,18.26,18.26"/>
                  <path class="cls-2" d="M840.76,1578.7c0-16.67-13.56-30.23-30.23-30.23s-30.23,13.56-30.23,30.23"/>
                </g>
                <g>
                  <path class="cls-2" d="M876.67,1578.7c0-23.27,18.93-42.2,42.2-42.2s42.2,18.93,42.2,42.2h0"/>
                  <path class="cls-2" d="M973.03,1578.7c0-29.92-24.25-54.17-54.17-54.17s-54.17,24.25-54.17,54.17"/>
                  <path class="cls-2" d="M888.64,1578.7c0-16.67,13.56-30.23,30.23-30.23s30.23,13.56,30.23,30.23"/>
                  <path class="cls-2" d="M961.06,1578.7c0-23.27-18.93-42.2-42.2-42.2s-42.2,18.93-42.2,42.2"/>
                  <path class="cls-2" d="M900.61,1578.7c0-10.07,8.19-18.26,18.26-18.26s18.26,8.19,18.26,18.26"/>
                  <path class="cls-2" d="M949.1,1578.7c0-16.67-13.56-30.23-30.23-30.23s-30.23,13.56-30.23,30.23"/>
                </g>
                <g>
                  <path class="cls-2" d="M985,1578.7c0-23.27,18.93-42.2,42.2-42.2s42.2,18.93,42.2,42.2h0"/>
                  <path class="cls-2" d="M1081.37,1578.7c0-29.92-24.25-54.17-54.17-54.17s-54.17,24.25-54.17,54.17"/>
                  <path class="cls-2" d="M996.97,1578.7c0-16.67,13.56-30.23,30.23-30.23s30.23,13.56,30.23,30.23"/>
                  <path class="cls-2" d="M1069.4,1578.7c0-23.27-18.93-42.2-42.2-42.2s-42.2,18.93-42.2,42.2"/>
                  <path class="cls-2" d="M1008.94,1578.7c0-10.07,8.19-18.26,18.26-18.26s18.26,8.19,18.26,18.26"/>
                  <path class="cls-2" d="M1057.43,1578.7c0-16.67-13.56-30.23-30.23-30.23s-30.23,13.56-30.23,30.23"/>
                </g>
                <g>
                  <path class="cls-2" d="M1093.34,1578.7c0-23.27,18.93-42.2,42.2-42.2s42.2,18.93,42.2,42.2h0"/>
                  <path class="cls-2" d="M1189.7,1578.7c0-29.92-24.25-54.17-54.17-54.17s-54.17,24.25-54.17,54.17"/>
                  <path class="cls-2" d="M1105.3,1578.7c0-16.67,13.56-30.23,30.23-30.23s30.23,13.56,30.23,30.23"/>
                  <path class="cls-2" d="M1177.73,1578.7c0-23.27-18.93-42.2-42.2-42.2s-42.2,18.93-42.2,42.2"/>
                  <path class="cls-2" d="M1117.27,1578.7c0-10.07,8.19-18.26,18.26-18.26s18.26,8.19,18.26,18.26"/>
                  <path class="cls-2" d="M1165.76,1578.7c0-16.67-13.56-30.23-30.23-30.23s-30.23,13.56-30.23,30.23"/>
                </g>
              </g>
              <g>
                <g>
                  <path class="cls-2" d="M280.84,1618.63c0-23.27,18.93-42.2,42.2-42.2s42.2,18.93,42.2,42.2h0"/>
                  <path class="cls-2" d="M377.2,1618.64c0-29.92-24.25-54.17-54.17-54.17s-54.17,24.25-54.17,54.17"/>
                  <path class="cls-2" d="M292.81,1618.63c0-16.67,13.56-30.23,30.23-30.23s30.23,13.56,30.23,30.23"/>
                  <path class="cls-2" d="M365.23,1618.63c0-23.27-18.93-42.2-42.2-42.2s-42.2,18.93-42.2,42.2"/>
                  <path class="cls-2" d="M304.78,1618.63c0-10.07,8.19-18.26,18.26-18.26s18.26,8.19,18.26,18.26"/>
                  <path class="cls-2" d="M353.26,1618.63c0-16.67-13.56-30.23-30.23-30.23s-30.23,13.56-30.23,30.23"/>
                </g>
                <g>
                  <path class="cls-2" d="M389.17,1618.63c0-23.27,18.93-42.2,42.2-42.2s42.2,18.93,42.2,42.2h0"/>
                  <path class="cls-2" d="M485.53,1618.64c0-29.92-24.25-54.17-54.17-54.17s-54.17,24.25-54.17,54.17"/>
                  <path class="cls-2" d="M401.14,1618.63c0-16.67,13.56-30.23,30.23-30.23s30.23,13.56,30.23,30.23"/>
                  <path class="cls-2" d="M473.57,1618.63c0-23.27-18.93-42.2-42.2-42.2s-42.2,18.93-42.2,42.2"/>
                  <path class="cls-2" d="M413.11,1618.63c0-10.07,8.19-18.26,18.26-18.26s18.26,8.19,18.26,18.26"/>
                  <path class="cls-2" d="M461.6,1618.63c0-16.67-13.56-30.23-30.23-30.23s-30.23,13.56-30.23,30.23"/>
                </g>
                <g>
                  <path class="cls-2" d="M497.5,1618.63c0-23.27,18.93-42.2,42.2-42.2s42.2,18.93,42.2,42.2h0"/>
                  <path class="cls-2" d="M593.87,1618.64c0-29.92-24.25-54.17-54.17-54.17s-54.17,24.25-54.17,54.17"/>
                  <path class="cls-2" d="M509.47,1618.63c0-16.67,13.56-30.23,30.23-30.23s30.23,13.56,30.23,30.23"/>
                  <path class="cls-2" d="M581.9,1618.63c0-23.27-18.93-42.2-42.2-42.2s-42.2,18.93-42.2,42.2"/>
                  <path class="cls-2" d="M521.44,1618.63c0-10.07,8.19-18.26,18.26-18.26s18.26,8.19,18.26,18.26"/>
                  <path class="cls-2" d="M569.93,1618.63c0-16.67-13.56-30.23-30.23-30.23s-30.23,13.56-30.23,30.23"/>
                </g>
                <g>
                  <path class="cls-2" d="M605.84,1618.63c0-23.27,18.93-42.2,42.2-42.2s42.2,18.93,42.2,42.2h0"/>
                  <path class="cls-2" d="M702.2,1618.64c0-29.92-24.25-54.17-54.17-54.17s-54.17,24.25-54.17,54.17"/>
                  <path class="cls-2" d="M617.81,1618.63c0-16.67,13.56-30.23,30.23-30.23s30.23,13.56,30.23,30.23"/>
                  <path class="cls-2" d="M690.23,1618.63c0-23.27-18.93-42.2-42.2-42.2s-42.2,18.93-42.2,42.2"/>
                  <path class="cls-2" d="M629.77,1618.63c0-10.07,8.19-18.26,18.26-18.26s18.26,8.19,18.26,18.26"/>
                  <path class="cls-2" d="M678.26,1618.63c0-16.67-13.56-30.23-30.23-30.23s-30.23,13.56-30.23,30.23"/>
                </g>
                <g>
                  <path class="cls-2" d="M714.17,1618.63c0-23.27,18.93-42.2,42.2-42.2s42.2,18.93,42.2,42.2h0"/>
                  <path class="cls-2" d="M810.53,1618.64c0-29.92-24.25-54.17-54.17-54.17s-54.17,24.25-54.17,54.17"/>
                  <path class="cls-2" d="M726.14,1618.63c0-16.67,13.56-30.23,30.23-30.23s30.23,13.56,30.23,30.23"/>
                  <path class="cls-2" d="M798.57,1618.63c0-23.27-18.93-42.2-42.2-42.2s-42.2,18.93-42.2,42.2"/>
                  <path class="cls-2" d="M738.11,1618.63c0-10.07,8.19-18.26,18.26-18.26s18.26,8.19,18.26,18.26"/>
                  <path class="cls-2" d="M786.6,1618.63c0-16.67-13.56-30.23-30.23-30.23s-30.23,13.56-30.23,30.23"/>
                </g>
                <g>
                  <path class="cls-2" d="M822.5,1618.63c0-23.27,18.93-42.2,42.2-42.2s42.2,18.93,42.2,42.2h0"/>
                  <path class="cls-2" d="M918.87,1618.64c0-29.92-24.25-54.17-54.17-54.17s-54.17,24.25-54.17,54.17"/>
                  <path class="cls-2" d="M834.47,1618.63c0-16.67,13.56-30.23,30.23-30.23s30.23,13.56,30.23,30.23"/>
                  <path class="cls-2" d="M906.9,1618.63c0-23.27-18.93-42.2-42.2-42.2s-42.2,18.93-42.2,42.2"/>
                  <path class="cls-2" d="M846.44,1618.63c0-10.07,8.19-18.26,18.26-18.26s18.26,8.19,18.26,18.26"/>
                  <path class="cls-2" d="M894.93,1618.63c0-16.67-13.56-30.23-30.23-30.23s-30.23,13.56-30.23,30.23"/>
                </g>
                <g>
                  <path class="cls-2" d="M931.04,1618.63c0-23.27,18.93-42.2,42.2-42.2s42.2,18.93,42.2,42.2h0"/>
                  <path class="cls-2" d="M1027.4,1618.64c0-29.92-24.25-54.17-54.17-54.17s-54.17,24.25-54.17,54.17"/>
                  <path class="cls-2" d="M943.01,1618.63c0-16.67,13.56-30.23,30.23-30.23s30.23,13.56,30.23,30.23"/>
                  <path class="cls-2" d="M1015.44,1618.63c0-23.27-18.93-42.2-42.2-42.2s-42.2,18.93-42.2,42.2"/>
                  <path class="cls-2" d="M954.98,1618.63c0-10.07,8.19-18.26,18.26-18.26s18.26,8.19,18.26,18.26"/>
                  <path class="cls-2" d="M1003.47,1618.63c0-16.67-13.56-30.23-30.23-30.23s-30.23,13.56-30.23,30.23"/>
                </g>
                <g>
                  <path class="cls-2" d="M1039.37,1618.63c0-23.27,18.93-42.2,42.2-42.2s42.2,18.93,42.2,42.2h0"/>
                  <path class="cls-2" d="M1135.74,1618.64c0-29.92-24.25-54.17-54.17-54.17s-54.17,24.25-54.17,54.17"/>
                  <path class="cls-2" d="M1051.34,1618.63c0-16.67,13.56-30.23,30.23-30.23s30.23,13.56,30.23,30.23"/>
                  <path class="cls-2" d="M1123.77,1618.63c0-23.27-18.93-42.2-42.2-42.2s-42.2,18.93-42.2,42.2"/>
                  <path class="cls-2" d="M1063.31,1618.63c0-10.07,8.19-18.26,18.26-18.26s18.26,8.19,18.26,18.26"/>
                  <path class="cls-2" d="M1111.8,1618.63c0-16.67-13.56-30.23-30.23-30.23s-30.23,13.56-30.23,30.23"/>
                </g>
              </g>
              <g>
                <g>
                  <path class="cls-2" d="M335,1658.8c0-23.27,18.93-42.2,42.2-42.2s42.2,18.93,42.2,42.2h0"/>
                  <path class="cls-2" d="M431.37,1658.8c0-29.92-24.25-54.17-54.17-54.17s-54.17,24.25-54.17,54.17"/>
                  <path class="cls-2" d="M346.97,1658.8c0-16.67,13.56-30.23,30.23-30.23s30.23,13.56,30.23,30.23"/>
                  <path class="cls-2" d="M419.4,1658.8c0-23.27-18.93-42.2-42.2-42.2s-42.2,18.93-42.2,42.2"/>
                  <path class="cls-2" d="M358.94,1658.8c0-10.07,8.19-18.26,18.26-18.26s18.26,8.19,18.26,18.26"/>
                  <path class="cls-2" d="M407.43,1658.8c0-16.67-13.56-30.23-30.23-30.23s-30.23,13.56-30.23,30.23"/>
                </g>
                <g>
                  <path class="cls-2" d="M226.67,1658.8c0-23.27,18.93-42.2,42.2-42.2s42.2,18.93,42.2,42.2h0"/>
                  <path class="cls-2" d="M323.04,1658.8c0-29.92-24.25-54.17-54.17-54.17s-54.17,24.25-54.17,54.17"/>
                  <path class="cls-2" d="M238.64,1658.8c0-16.67,13.56-30.23,30.23-30.23s30.23,13.56,30.23,30.23"/>
                  <path class="cls-2" d="M311.07,1658.8c0-23.27-18.93-42.2-42.2-42.2s-42.2,18.93-42.2,42.2"/>
                  <path class="cls-2" d="M250.61,1658.8c0-10.07,8.19-18.26,18.26-18.26s18.26,8.19,18.26,18.26"/>
                  <path class="cls-2" d="M299.1,1658.8c0-16.67-13.56-30.23-30.23-30.23s-30.23,13.56-30.23,30.23"/>
                </g>
                <g>
                  <path class="cls-2" d="M443.34,1658.8c0-23.27,18.93-42.2,42.2-42.2s42.2,18.93,42.2,42.2h0"/>
                  <path class="cls-2" d="M539.7,1658.8c0-29.92-24.25-54.17-54.17-54.17s-54.17,24.25-54.17,54.17"/>
                  <path class="cls-2" d="M455.31,1658.8c0-16.67,13.56-30.23,30.23-30.23s30.23,13.56,30.23,30.23"/>
                  <path class="cls-2" d="M527.73,1658.8c0-23.27-18.93-42.2-42.2-42.2s-42.2,18.93-42.2,42.2"/>
                  <path class="cls-2" d="M467.28,1658.8c0-10.07,8.19-18.26,18.26-18.26s18.26,8.19,18.26,18.26"/>
                  <path class="cls-2" d="M515.76,1658.8c0-16.67-13.56-30.23-30.23-30.23s-30.23,13.56-30.23,30.23"/>
                </g>
                <g>
                  <path class="cls-2" d="M551.67,1658.8c0-23.27,18.93-42.2,42.2-42.2s42.2,18.93,42.2,42.2h0"/>
                  <path class="cls-2" d="M648.03,1658.8c0-29.92-24.25-54.17-54.17-54.17s-54.17,24.25-54.17,54.17"/>
                  <path class="cls-2" d="M563.64,1658.8c0-16.67,13.56-30.23,30.23-30.23s30.23,13.56,30.23,30.23"/>
                  <path class="cls-2" d="M636.07,1658.8c0-23.27-18.93-42.2-42.2-42.2s-42.2,18.93-42.2,42.2"/>
                  <path class="cls-2" d="M575.61,1658.8c0-10.07,8.19-18.26,18.26-18.26s18.26,8.19,18.26,18.26"/>
                  <path class="cls-2" d="M624.1,1658.8c0-16.67-13.56-30.23-30.23-30.23s-30.23,13.56-30.23,30.23"/>
                </g>
                <g>
                  <path class="cls-2" d="M660,1658.8c0-23.27,18.93-42.2,42.2-42.2s42.2,18.93,42.2,42.2h0"/>
                  <path class="cls-2" d="M756.37,1658.8c0-29.92-24.25-54.17-54.17-54.17s-54.17,24.25-54.17,54.17"/>
                  <path class="cls-2" d="M671.97,1658.8c0-16.67,13.56-30.23,30.23-30.23s30.23,13.56,30.23,30.23"/>
                  <path class="cls-2" d="M744.4,1658.8c0-23.27-18.93-42.2-42.2-42.2s-42.2,18.93-42.2,42.2"/>
                  <path class="cls-2" d="M683.94,1658.8c0-10.07,8.19-18.26,18.26-18.26s18.26,8.19,18.26,18.26"/>
                  <path class="cls-2" d="M732.43,1658.8c0-16.67-13.56-30.23-30.23-30.23s-30.23,13.56-30.23,30.23"/>
                </g>
                <g>
                  <path class="cls-2" d="M768.34,1658.8c0-23.27,18.93-42.2,42.2-42.2s42.2,18.93,42.2,42.2h0"/>
                  <path class="cls-2" d="M864.7,1658.8c0-29.92-24.25-54.17-54.17-54.17s-54.17,24.25-54.17,54.17"/>
                  <path class="cls-2" d="M780.31,1658.8c0-16.67,13.56-30.23,30.23-30.23s30.23,13.56,30.23,30.23"/>
                  <path class="cls-2" d="M852.73,1658.8c0-23.27-18.93-42.2-42.2-42.2s-42.2,18.93-42.2,42.2"/>
                  <path class="cls-2" d="M792.27,1658.8c0-10.07,8.19-18.26,18.26-18.26s18.26,8.19,18.26,18.26"/>
                  <path class="cls-2" d="M840.76,1658.8c0-16.67-13.56-30.23-30.23-30.23s-30.23,13.56-30.23,30.23"/>
                </g>
                <g>
                  <path class="cls-2" d="M876.67,1658.8c0-23.27,18.93-42.2,42.2-42.2s42.2,18.93,42.2,42.2h0"/>
                  <path class="cls-2" d="M973.03,1658.8c0-29.92-24.25-54.17-54.17-54.17s-54.17,24.25-54.17,54.17"/>
                  <path class="cls-2" d="M888.64,1658.8c0-16.67,13.56-30.23,30.23-30.23s30.23,13.56,30.23,30.23"/>
                  <path class="cls-2" d="M961.06,1658.8c0-23.27-18.93-42.2-42.2-42.2s-42.2,18.93-42.2,42.2"/>
                  <path class="cls-2" d="M900.61,1658.8c0-10.07,8.19-18.26,18.26-18.26s18.26,8.19,18.26,18.26"/>
                  <path class="cls-2" d="M949.1,1658.8c0-16.67-13.56-30.23-30.23-30.23s-30.23,13.56-30.23,30.23"/>
                </g>
                <g>
                  <path class="cls-2" d="M985.21,1658.8c0-23.27,18.93-42.2,42.2-42.2s42.2,18.93,42.2,42.2h0"/>
                  <path class="cls-2" d="M1081.57,1658.8c0-29.92-24.25-54.17-54.17-54.17s-54.17,24.25-54.17,54.17"/>
                  <path class="cls-2" d="M997.18,1658.8c0-16.67,13.56-30.23,30.23-30.23s30.23,13.56,30.23,30.23"/>
                  <path class="cls-2" d="M1069.6,1658.8c0-23.27-18.93-42.2-42.2-42.2s-42.2,18.93-42.2,42.2"/>
                  <path class="cls-2" d="M1009.14,1658.8c0-10.07,8.19-18.26,18.26-18.26s18.26,8.19,18.26,18.26"/>
                  <path class="cls-2" d="M1057.63,1658.8c0-16.67-13.56-30.23-30.23-30.23s-30.23,13.56-30.23,30.23"/>
                </g>
                <g>
                  <path class="cls-2" d="M1093.54,1658.8c0-23.27,18.93-42.2,42.2-42.2s42.2,18.93,42.2,42.2h0"/>
                  <path class="cls-2" d="M1189.9,1658.8c0-29.92-24.25-54.17-54.17-54.17s-54.17,24.25-54.17,54.17"/>
                  <path class="cls-2" d="M1105.51,1658.8c0-16.67,13.56-30.23,30.23-30.23s30.23,13.56,30.23,30.23"/>
                  <path class="cls-2" d="M1177.93,1658.8c0-23.27-18.93-42.2-42.2-42.2s-42.2,18.93-42.2,42.2"/>
                  <path class="cls-2" d="M1117.48,1658.8c0-10.07,8.19-18.26,18.26-18.26s18.26,8.19,18.26,18.26"/>
                  <path class="cls-2" d="M1165.97,1658.8c0-16.67-13.56-30.23-30.23-30.23s-30.23,13.56-30.23,30.23"/>
                </g>
              </g>
              <g>
                <g>
                  <path class="cls-2" d="M280.84,1697.62c0-23.27,18.93-42.2,42.2-42.2s42.2,18.93,42.2,42.2h0"/>
                  <path class="cls-2" d="M377.2,1697.62c0-29.92-24.25-54.17-54.17-54.17s-54.17,24.25-54.17,54.17"/>
                  <path class="cls-2" d="M292.81,1697.62c0-16.67,13.56-30.23,30.23-30.23s30.23,13.56,30.23,30.23"/>
                  <path class="cls-2" d="M365.23,1697.62c0-23.27-18.93-42.2-42.2-42.2s-42.2,18.93-42.2,42.2"/>
                  <path class="cls-2" d="M304.78,1697.62c0-10.07,8.19-18.26,18.26-18.26s18.26,8.19,18.26,18.26"/>
                  <path class="cls-2" d="M353.26,1697.62c0-16.67-13.56-30.23-30.23-30.23s-30.23,13.56-30.23,30.23"/>
                </g>
                <g>
                  <path class="cls-2" d="M389.17,1697.62c0-23.27,18.93-42.2,42.2-42.2s42.2,18.93,42.2,42.2h0"/>
                  <path class="cls-2" d="M485.53,1697.62c0-29.92-24.25-54.17-54.17-54.17s-54.17,24.25-54.17,54.17"/>
                  <path class="cls-2" d="M401.14,1697.62c0-16.67,13.56-30.23,30.23-30.23s30.23,13.56,30.23,30.23"/>
                  <path class="cls-2" d="M473.57,1697.62c0-23.27-18.93-42.2-42.2-42.2s-42.2,18.93-42.2,42.2"/>
                  <path class="cls-2" d="M413.11,1697.62c0-10.07,8.19-18.26,18.26-18.26s18.26,8.19,18.26,18.26"/>
                  <path class="cls-2" d="M461.6,1697.62c0-16.67-13.56-30.23-30.23-30.23s-30.23,13.56-30.23,30.23"/>
                </g>
                <g>
                  <path class="cls-2" d="M497.5,1697.62c0-23.27,18.93-42.2,42.2-42.2s42.2,18.93,42.2,42.2h0"/>
                  <path class="cls-2" d="M593.87,1697.62c0-29.92-24.25-54.17-54.17-54.17s-54.17,24.25-54.17,54.17"/>
                  <path class="cls-2" d="M509.47,1697.62c0-16.67,13.56-30.23,30.23-30.23s30.23,13.56,30.23,30.23"/>
                  <path class="cls-2" d="M581.9,1697.62c0-23.27-18.93-42.2-42.2-42.2s-42.2,18.93-42.2,42.2"/>
                  <path class="cls-2" d="M521.44,1697.62c0-10.07,8.19-18.26,18.26-18.26s18.26,8.19,18.26,18.26"/>
                  <path class="cls-2" d="M569.93,1697.62c0-16.67-13.56-30.23-30.23-30.23s-30.23,13.56-30.23,30.23"/>
                </g>
                <g>
                  <path class="cls-2" d="M605.84,1697.62c0-23.27,18.93-42.2,42.2-42.2s42.2,18.93,42.2,42.2h0"/>
                  <path class="cls-2" d="M702.2,1697.62c0-29.92-24.25-54.17-54.17-54.17s-54.17,24.25-54.17,54.17"/>
                  <path class="cls-2" d="M617.81,1697.62c0-16.67,13.56-30.23,30.23-30.23s30.23,13.56,30.23,30.23"/>
                  <path class="cls-2" d="M690.23,1697.62c0-23.27-18.93-42.2-42.2-42.2s-42.2,18.93-42.2,42.2"/>
                  <path class="cls-2" d="M629.77,1697.62c0-10.07,8.19-18.26,18.26-18.26s18.26,8.19,18.26,18.26"/>
                  <path class="cls-2" d="M678.26,1697.62c0-16.67-13.56-30.23-30.23-30.23s-30.23,13.56-30.23,30.23"/>
                </g>
                <g>
                  <path class="cls-2" d="M714.17,1697.62c0-23.27,18.93-42.2,42.2-42.2s42.2,18.93,42.2,42.2h0"/>
                  <path class="cls-2" d="M810.53,1697.62c0-29.92-24.25-54.17-54.17-54.17s-54.17,24.25-54.17,54.17"/>
                  <path class="cls-2" d="M726.14,1697.62c0-16.67,13.56-30.23,30.23-30.23s30.23,13.56,30.23,30.23"/>
                  <path class="cls-2" d="M798.57,1697.62c0-23.27-18.93-42.2-42.2-42.2s-42.2,18.93-42.2,42.2"/>
                  <path class="cls-2" d="M738.11,1697.62c0-10.07,8.19-18.26,18.26-18.26s18.26,8.19,18.26,18.26"/>
                  <path class="cls-2" d="M786.6,1697.62c0-16.67-13.56-30.23-30.23-30.23s-30.23,13.56-30.23,30.23"/>
                </g>
                <g>
                  <path class="cls-2" d="M822.5,1697.62c0-23.27,18.93-42.2,42.2-42.2s42.2,18.93,42.2,42.2h0"/>
                  <path class="cls-2" d="M918.87,1697.62c0-29.92-24.25-54.17-54.17-54.17s-54.17,24.25-54.17,54.17"/>
                  <path class="cls-2" d="M834.47,1697.62c0-16.67,13.56-30.23,30.23-30.23s30.23,13.56,30.23,30.23"/>
                  <path class="cls-2" d="M906.9,1697.62c0-23.27-18.93-42.2-42.2-42.2s-42.2,18.93-42.2,42.2"/>
                  <path class="cls-2" d="M846.44,1697.62c0-10.07,8.19-18.26,18.26-18.26s18.26,8.19,18.26,18.26"/>
                  <path class="cls-2" d="M894.93,1697.62c0-16.67-13.56-30.23-30.23-30.23s-30.23,13.56-30.23,30.23"/>
                </g>
                <g>
                  <path class="cls-2" d="M931.04,1697.62c0-23.27,18.93-42.2,42.2-42.2s42.2,18.93,42.2,42.2h0"/>
                  <path class="cls-2" d="M1027.4,1697.62c0-29.92-24.25-54.17-54.17-54.17s-54.17,24.25-54.17,54.17"/>
                  <path class="cls-2" d="M943.01,1697.62c0-16.67,13.56-30.23,30.23-30.23s30.23,13.56,30.23,30.23"/>
                  <path class="cls-2" d="M1015.43,1697.62c0-23.27-18.93-42.2-42.2-42.2s-42.2,18.93-42.2,42.2"/>
                  <path class="cls-2" d="M954.98,1697.62c0-10.07,8.19-18.26,18.26-18.26s18.26,8.19,18.26,18.26"/>
                  <path class="cls-2" d="M1003.47,1697.62c0-16.67-13.56-30.23-30.23-30.23s-30.23,13.56-30.23,30.23"/>
                </g>
                <g>
                  <path class="cls-2" d="M1039.37,1697.62c0-23.27,18.93-42.2,42.2-42.2s42.2,18.93,42.2,42.2h0"/>
                  <path class="cls-2" d="M1135.74,1697.62c0-29.92-24.25-54.17-54.17-54.17s-54.17,24.25-54.17,54.17"/>
                  <path class="cls-2" d="M1051.34,1697.62c0-16.67,13.56-30.23,30.23-30.23s30.23,13.56,30.23,30.23"/>
                  <path class="cls-2" d="M1123.77,1697.62c0-23.27-18.93-42.2-42.2-42.2s-42.2,18.93-42.2,42.2"/>
                  <path class="cls-2" d="M1063.31,1697.62c0-10.07,8.19-18.26,18.26-18.26s18.26,8.19,18.26,18.26"/>
                  <path class="cls-2" d="M1111.8,1697.62c0-16.67-13.56-30.23-30.23-30.23s-30.23,13.56-30.23,30.23"/>
                </g>
              </g>
            </g>
          </g>
          <line class="cls-6" x1="272.47" y1="1288.21" x2="1131.15" y2="1288.21"/>
          <line class="cls-8" x1="284.55" y1="1346.03" x2="1120.06" y2="1346.03"/>
          <g>
            <path class="cls-8" d="M1132.13,1271.28H272.47c1.84,25.6,5.95,50.58,12.07,74.75h835.51c6.12-24.17,10.23-49.14,12.07-74.75Z"/>
            <path class="cls-8" d="M284.55,1346.03c47.29,186.68,216.37,324.83,417.76,324.83s370.47-138.14,417.76-324.83H284.55Z"/>
          </g>
          <path class="cls-3" d="M819.28,1680.96h-233.95c-7.31,0-13.3-5.98-13.3-13.3h0c0-7.31,5.98-13.3,13.3-13.3h233.95c7.31,0,13.3,5.98,13.3,13.3h0c0,7.31-5.98,13.3-13.3,13.3Z"/>
        </g>
        <rect class="cls-11" y="1581.31" width="1404.61" height="99.65"/>
      </g>
      <g>
        <path class="cls-10" d="M1194.99,1079.15c1.61,0,1.61-2.5,0-2.5s-1.61,2.5,0,2.5h0Z"/>
        <path class="cls-1" d="M1216.82,1106.61c3.22,0,3.22-5,0-5s-3.22,5,0,5h0Z"/>
        <path class="cls-1" d="M657.98,1050.67c1.61,0,1.61-2.5,0-2.5s-1.61,2.5,0,2.5h0Z"/>
        <path class="cls-1" d="M471.03,850.06c2.41,0,2.42-3.75,0-3.75s-2.42,3.75,0,3.75h0Z"/>
        <path class="cls-10" d="M491.91,833.77c1.61,0,1.61-2.5,0-2.5s-1.61,2.5,0,2.5h0Z"/>
        <path class="cls-10" d="M434.48,808.92c3.22,0,3.22-5,0-5s-3.22,5,0,5h0Z"/>
        <path class="cls-10" d="M290.83,1174.92c1.61,0,1.61-2.5,0-2.5s-1.61,2.5,0,2.5h0Z"/>
        <path class="cls-1" d="M276.91,1199.91c2.41,0,2.42-3.75,0-3.75s-2.42,3.75,0,3.75h0Z"/>
        <path class="cls-1" d="M232.56,1145.23c1.61,0,1.61-2.5,0-2.5s-1.61,2.5,0,2.5h0Z"/>
        <path class="cls-1" d="M930.62,933.87c1.61,0,1.61-2.5,0-2.5s-1.61,2.5,0,2.5h0Z"/>
        <path class="cls-10" d="M218.88,1299.69c1.61,0,1.61-2.5,0-2.5s-1.61,2.5,0,2.5h0Z"/>
        <path class="cls-1" d="M1181.07,1243.47c2.41,0,2.42-3.75,0-3.75s-2.42,3.75,0,3.75h0Z"/>
      </g>
      <g>
        <path class="cls-10" d="M1088.3,979.45c1.61,0,1.61-2.5,0-2.5s-1.61,2.5,0,2.5h0Z"/>
        <path class="cls-1" d="M1110.13,1006.9c3.22,0,3.22-5,0-5s-3.22,5,0,5h0Z"/>
        <path class="cls-1" d="M551.29,950.96c1.61,0,1.61-2.5,0-2.5s-1.61,2.5,0,2.5h0Z"/>
        <path class="cls-1" d="M364.33,750.35c2.41,0,2.42-3.75,0-3.75s-2.42,3.75,0,3.75h0Z"/>
        <path class="cls-10" d="M385.22,734.07c1.61,0,1.61-2.5,0-2.5s-1.61,2.5,0,2.5h0Z"/>
        <path class="cls-10" d="M327.79,709.21c3.22,0,3.22-5,0-5s-3.22,5,0,5h0Z"/>
        <path class="cls-10" d="M184.14,1075.21c1.61,0,1.61-2.5,0-2.5s-1.61,2.5,0,2.5h0Z"/>
        <path class="cls-1" d="M170.21,1100.2c2.41,0,2.42-3.75,0-3.75s-2.42,3.75,0,3.75h0Z"/>
        <path class="cls-1" d="M125.86,1045.53c1.61,0,1.61-2.5,0-2.5s-1.61,2.5,0,2.5h0Z"/>
        <path class="cls-1" d="M823.93,834.16c1.61,0,1.61-2.5,0-2.5s-1.61,2.5,0,2.5h0Z"/>
        <path class="cls-10" d="M112.18,1199.98c1.61,0,1.61-2.5,0-2.5s-1.61,2.5,0,2.5h0Z"/>
        <path class="cls-1" d="M1074.37,1143.76c2.41,0,2.42-3.75,0-3.75s-2.42,3.75,0,3.75h0Z"/>
      </g>
      <g>
        <path class="cls-10" d="M1092.3,753.24c1.61,0,1.61-2.5,0-2.5s-1.61,2.5,0,2.5h0Z"/>
        <path class="cls-1" d="M1114.13,780.69c3.22,0,3.22-5,0-5s-3.22,5,0,5h0Z"/>
        <path class="cls-1" d="M555.29,724.75c1.61,0,1.61-2.5,0-2.5s-1.61,2.5,0,2.5h0Z"/>
        <path class="cls-1" d="M368.34,524.14c2.41,0,2.42-3.75,0-3.75s-2.42,3.75,0,3.75h0Z"/>
        <path class="cls-10" d="M389.23,507.85c1.61,0,1.61-2.5,0-2.5s-1.61,2.5,0,2.5h0Z"/>
        <path class="cls-10" d="M331.8,483c3.22,0,3.22-5,0-5s-3.22,5,0,5h0Z"/>
        <path class="cls-10" d="M188.14,849c1.61,0,1.61-2.5,0-2.5s-1.61,2.5,0,2.5h0Z"/>
        <path class="cls-1" d="M174.22,873.99c2.41,0,2.42-3.75,0-3.75s-2.42,3.75,0,3.75h0Z"/>
        <path class="cls-1" d="M129.87,819.31c1.61,0,1.61-2.5,0-2.5s-1.61,2.5,0,2.5h0Z"/>
        <path class="cls-1" d="M827.93,607.95c1.61,0,1.61-2.5,0-2.5s-1.61,2.5,0,2.5h0Z"/>
        <path class="cls-10" d="M116.19,973.77c1.61,0,1.61-2.5,0-2.5s-1.61,2.5,0,2.5h0Z"/>
        <path class="cls-1" d="M1078.38,917.55c2.41,0,2.42-3.75,0-3.75s-2.42,3.75,0,3.75h0Z"/>
      </g>
      <g>
        <path class="cls-10" d="M1244.74,521.25c1.61,0,1.61-2.5,0-2.5s-1.61,2.5,0,2.5h0Z"/>
        <path class="cls-1" d="M1266.57,548.7c3.22,0,3.22-5,0-5s-3.22,5,0,5h0Z"/>
        <path class="cls-1" d="M707.73,492.76c1.61,0,1.61-2.5,0-2.5s-1.61,2.5,0,2.5h0Z"/>
        <path class="cls-1" d="M520.78,292.15c2.41,0,2.42-3.75,0-3.75s-2.42,3.75,0,3.75h0Z"/>
        <path class="cls-10" d="M541.66,275.87c1.61,0,1.61-2.5,0-2.5s-1.61,2.5,0,2.5h0Z"/>
        <path class="cls-10" d="M484.23,251.01c3.22,0,3.22-5,0-5s-3.22,5,0,5h0Z"/>
        <path class="cls-10" d="M340.58,617.01c1.61,0,1.61-2.5,0-2.5s-1.61,2.5,0,2.5h0Z"/>
        <path class="cls-1" d="M326.66,642c2.41,0,2.42-3.75,0-3.75s-2.42,3.75,0,3.75h0Z"/>
        <path class="cls-1" d="M282.31,587.33c1.61,0,1.61-2.5,0-2.5s-1.61,2.5,0,2.5h0Z"/>
        <path class="cls-1" d="M980.37,375.96c1.61,0,1.61-2.5,0-2.5s-1.61,2.5,0,2.5h0Z"/>
        <path class="cls-10" d="M268.63,741.79c1.61,0,1.61-2.5,0-2.5s-1.61,2.5,0,2.5h0Z"/>
        <path class="cls-1" d="M1230.82,685.56c2.41,0,2.42-3.75,0-3.75s-2.42,3.75,0,3.75h0Z"/>
      </g>
      <g>
        <path class="cls-10" d="M1025.42,518.24c1.61,0,1.61-2.5,0-2.5s-1.61,2.5,0,2.5h0Z"/>
        <path class="cls-1" d="M1047.25,545.7c3.22,0,3.22-5,0-5s-3.22,5,0,5h0Z"/>
        <path class="cls-1" d="M488.41,489.76c1.61,0,1.61-2.5,0-2.5s-1.61,2.5,0,2.5h0Z"/>
        <path class="cls-1" d="M301.46,289.14c2.41,0,2.42-3.75,0-3.75s-2.42,3.75,0,3.75h0Z"/>
        <path class="cls-10" d="M322.34,272.86c1.61,0,1.61-2.5,0-2.5s-1.61,2.5,0,2.5h0Z"/>
        <path class="cls-10" d="M264.91,248c3.22,0,3.22-5,0-5s-3.22,5,0,5h0Z"/>
        <path class="cls-10" d="M121.26,614.01c1.61,0,1.61-2.5,0-2.5s-1.61,2.5,0,2.5h0Z"/>
        <path class="cls-1" d="M107.34,638.99c2.41,0,2.42-3.75,0-3.75s-2.42,3.75,0,3.75h0Z"/>
        <path class="cls-1" d="M62.99,584.32c1.61,0,1.61-2.5,0-2.5s-1.61,2.5,0,2.5h0Z"/>
        <path class="cls-1" d="M761.05,372.95c1.61,0,1.61-2.5,0-2.5s-1.61,2.5,0,2.5h0Z"/>
        <path class="cls-10" d="M49.3,738.78c1.61,0,1.61-2.5,0-2.5s-1.61,2.5,0,2.5h0Z"/>
        <path class="cls-1" d="M1011.5,682.55c2.41,0,2.42-3.75,0-3.75s-2.42,3.75,0,3.75h0Z"/>
      </g>
      <g>
        <path class="cls-10" d="M1056.97,275.24c1.61,0,1.61-2.5,0-2.5s-1.61,2.5,0,2.5h0Z"/>
        <path class="cls-1" d="M1078.8,302.69c3.22,0,3.22-5,0-5s-3.22,5,0,5h0Z"/>
        <path class="cls-1" d="M519.96,246.75c1.61,0,1.61-2.5,0-2.5s-1.61,2.5,0,2.5h0Z"/>
        <path class="cls-1" d="M333.01,46.14c2.41,0,2.42-3.75,0-3.75s-2.42,3.75,0,3.75h0Z"/>
        <path class="cls-10" d="M353.89,29.85c1.61,0,1.61-2.5,0-2.5s-1.61,2.5,0,2.5h0Z"/>
        <path class="cls-10" d="M296.47,5c3.22,0,3.22-5,0-5s-3.22,5,0,5h0Z"/>
        <path class="cls-10" d="M152.81,371c1.61,0,1.61-2.5,0-2.5s-1.61,2.5,0,2.5h0Z"/>
        <path class="cls-1" d="M138.89,395.99c2.41,0,2.42-3.75,0-3.75s-2.42,3.75,0,3.75h0Z"/>
        <path class="cls-1" d="M94.54,341.32c1.61,0,1.61-2.5,0-2.5s-1.61,2.5,0,2.5h0Z"/>
        <path class="cls-1" d="M792.6,129.95c1.61,0,1.61-2.5,0-2.5s-1.61,2.5,0,2.5h0Z"/>
        <path class="cls-10" d="M80.86,495.77c1.61,0,1.61-2.5,0-2.5s-1.61,2.5,0,2.5h0Z"/>
        <path class="cls-1" d="M1043.05,439.55c2.41,0,2.42-3.75,0-3.75s-2.42,3.75,0,3.75h0Z"/>
      </g>
      <g>
        <path class="cls-10" d="M1427.51,568.18c1.61,0,1.61-2.5,0-2.5s-1.61,2.5,0,2.5h0Z"/>
        <path class="cls-1" d="M1449.34,595.64c3.22,0,3.22-5,0-5s-3.22,5,0,5h0Z"/>
        <path class="cls-1" d="M890.5,539.69c1.61,0,1.61-2.5,0-2.5s-1.61,2.5,0,2.5h0Z"/>
        <path class="cls-1" d="M703.55,339.08c2.41,0,2.42-3.75,0-3.75s-2.42,3.75,0,3.75h0Z"/>
        <path class="cls-10" d="M724.44,322.8c1.61,0,1.61-2.5,0-2.5s-1.61,2.5,0,2.5h0Z"/>
        <path class="cls-10" d="M667.01,297.94c3.22,0,3.22-5,0-5s-3.22,5,0,5h0Z"/>
        <path class="cls-10" d="M523.35,663.95c1.61,0,1.61-2.5,0-2.5s-1.61,2.5,0,2.5h0Z"/>
        <path class="cls-1" d="M509.43,688.93c2.41,0,2.42-3.75,0-3.75s-2.42,3.75,0,3.75h0Z"/>
        <path class="cls-1" d="M465.08,634.26c1.61,0,1.61-2.5,0-2.5s-1.61,2.5,0,2.5h0Z"/>
        <path class="cls-1" d="M1163.14,422.89c1.61,0,1.61-2.5,0-2.5s-1.61,2.5,0,2.5h0Z"/>
        <path class="cls-10" d="M451.4,788.72c1.61,0,1.61-2.5,0-2.5s-1.61,2.5,0,2.5h0Z"/>
        <path class="cls-1" d="M1413.59,732.49c2.41,0,2.42-3.75,0-3.75s-2.42,3.75,0,3.75h0Z"/>
      </g>
      <g>
        <path class="cls-10" d="M1360.63,333.18c1.61,0,1.61-2.5,0-2.5s-1.61,2.5,0,2.5h0Z"/>
        <path class="cls-1" d="M1382.46,360.64c3.22,0,3.22-5,0-5s-3.22,5,0,5h0Z"/>
        <path class="cls-1" d="M823.62,304.7c1.61,0,1.61-2.5,0-2.5s-1.61,2.5,0,2.5h0Z"/>
        <path class="cls-1" d="M636.67,104.09c2.41,0,2.42-3.75,0-3.75s-2.42,3.75,0,3.75h0Z"/>
        <path class="cls-10" d="M657.55,87.8c1.61,0,1.61-2.5,0-2.5s-1.61,2.5,0,2.5h0Z"/>
        <path class="cls-10" d="M600.12,62.94c3.22,0,3.22-5,0-5s-3.22,5,0,5h0Z"/>
        <path class="cls-10" d="M456.47,428.95c1.61,0,1.61-2.5,0-2.5s-1.61,2.5,0,2.5h0Z"/>
        <path class="cls-1" d="M442.55,453.94c2.41,0,2.42-3.75,0-3.75s-2.42,3.75,0,3.75h0Z"/>
        <path class="cls-1" d="M398.2,399.26c1.61,0,1.61-2.5,0-2.5s-1.61,2.5,0,2.5h0Z"/>
        <path class="cls-1" d="M1096.26,187.89c1.61,0,1.61-2.5,0-2.5s-1.61,2.5,0,2.5h0Z"/>
        <path class="cls-10" d="M384.51,553.72c1.61,0,1.61-2.5,0-2.5s-1.61,2.5,0,2.5h0Z"/>
        <path class="cls-1" d="M1346.71,497.5c2.41,0,2.42-3.75,0-3.75s-2.42,3.75,0,3.75h0Z"/>
      </g>
    </g>
  </g>
</svg>